<?xml version="1.0" encoding="UTF-8" standalone="no"?>
<!-- Created with Inkscape (http://www.inkscape.org/) -->

<svg
   xmlns:dc="http://purl.org/dc/elements/1.1/"
   xmlns:cc="http://creativecommons.org/ns#"
   xmlns:rdf="http://www.w3.org/1999/02/22-rdf-syntax-ns#"
   xmlns:svg="http://www.w3.org/2000/svg"
   xmlns="http://www.w3.org/2000/svg"
   xmlns:xlink="http://www.w3.org/1999/xlink"
   xmlns:sodipodi="http://sodipodi.sourceforge.net/DTD/sodipodi-0.dtd"
   xmlns:inkscape="http://www.inkscape.org/namespaces/inkscape"
   width="250mm"
   height="250mm"
   viewBox="0 0 250 250"
   version="1.1"
   id="svg28"
   inkscape:version="0.92.4 (5da689c313, 2019-01-14)"
   sodipodi:docname="contact.svg">
  <defs
     id="defs22">
    <linearGradient
       inkscape:collect="always"
       id="linearGradient52">
      <stop
         style="stop-color:#2ca02c;stop-opacity:1"
         offset="0"
         id="stop48" />
      <stop
         id="stop56"
         offset="0.44513282"
         style="stop-color:#40b463;stop-opacity:1" />
      <stop
         style="stop-color:#5fd3bc;stop-opacity:1"
         offset="1"
         id="stop50" />
    </linearGradient>
    <inkscape:path-effect
       effect="spiro"
       id="path-effect36"
       is_visible="true" />
    <inkscape:path-effect
       effect="spiro"
       id="path-effect32"
       is_visible="true" />
    <linearGradient
       inkscape:collect="always"
       xlink:href="#linearGradient52"
       id="linearGradient879"
       x1="309.10516"
       y1="430.05679"
       x2="853.80469"
       y2="841.48535"
       gradientUnits="userSpaceOnUse"
       gradientTransform="matrix(0.29699952,0,0,0.28200213,-9.1901269,-11.686157)" />
    <clipPath
       clipPathUnits="userSpaceOnUse"
       id="clipPath3771">
      <g
         id="use3773"
         inkscape:label="Clip">
        <path
           style="fill:#00d455;fill-opacity:1;stroke-width:0.53453904"
           d="m 124.47093,146.12429 c -6.5419,-0.53671 -16.2876,-2.67485 -23.27007,-5.10529 -32.693852,-11.37998 -56.100502,-37.72207 -62.641052,-70.496889 -0.90252,-4.52255 -1.18408,-7.85577 -1.19911,-14.19568 -0.0183,-7.72257 0.0691,-8.4669 1.28652,-10.95805 0.71838,-1.46998 2.59182,-4.02711 4.1632,-5.68251 4.95486,-5.21979 11.43811,-7.19949 22.19725,-6.77806 4.30865,0.16876 5.39468,0.38695 6.24332,1.25431 0.92604,0.94648 5.47391,13.24088 9.42974,25.49174 l 1.50595,4.66378 -1.30852,1.41593 c -0.71968,0.77877 -2.93218,2.7194 -4.91665,4.31252 -1.98448,1.59312 -3.60814,3.25515 -3.60814,3.6934 0,2.25511 6.64341,12.94809 11.68074,18.80086 3.76363,4.37289 10.4831,10.181749 15.58075,13.469259 5.515842,3.55721 12.013072,6.60475 13.246462,6.21329 0.59314,-0.18825 2.45166,-1.99083 4.13006,-4.00574 4.018,-4.8236 4.84277,-5.24797 8.42855,-4.33676 6.69786,1.70206 27.25481,8.71315 28.13849,9.59683 1.38687,1.38687 1.72384,4.75645 1.1844,11.84332 -0.65898,8.65714 -2.64968,12.80692 -8.04279,16.76583 -5.23359,3.84181 -11.26508,4.93742 -22.2291,4.03791 z m 14.43255,-9.02893 c 1.17599,-0.54564 2.90773,-1.8032 3.84832,-2.79459 2.61158,-2.75264 3.36796,-5.12021 3.36796,-10.54225 v -4.76502 l -4.67722,-1.48348 c -9.46648,-3.00252 -16.41187,-4.93055 -16.97833,-4.71318 -0.31993,0.12277 -2.11675,2.02639 -3.99293,4.23026 -3.57524,4.19966 -4.73278,4.84065 -7.83301,4.33756 -2.88132,-0.46757 -13.711722,-5.87767 -19.698762,-9.84009 -6.76095,-4.47462 -16.40679,-14.026959 -20.98539,-20.781969 -4.2425,-6.25916 -9.22245,-16.36445 -9.22245,-18.71414 0,-1.5818 0.53587,-2.23534 4.82162,-5.8804 3.31541,-2.81978 4.73637,-4.36819 4.54872,-4.95671 -0.1501,-0.47073 -1.67862,-5.06537 -3.39671,-10.21031 l -3.12381,-9.35443 -4.63141,-0.15444 c -5.93335,-0.19785 -8.44231,0.50387 -11.33496,3.17022 -3.52415,3.24844 -4.20852,5.59634 -3.83829,13.16811 0.59497,12.16822 3.42977,22.47863 9.31537,33.88071 11.65056,22.570489 35.39515,40.023459 60.918312,44.776729 7.26552,1.35309 8.26649,1.45527 15.14215,1.54568 4.45536,0.0586 6.05354,-0.13076 7.75082,-0.91826 z"
           id="path89"
           inkscape:connector-curvature="0" />
        <path
           style="fill:#00d455;fill-opacity:1;stroke-width:0.53453904"
           d="m 111.04096,81.725521 c -1.93854,-0.81509 -2.30084,-1.86994 -2.38965,-6.95749 -0.0359,-2.05798 -0.21961,-5.17524 -0.4082,-6.92725 -0.34107,-3.16862 -0.35355,-3.18769 -2.35571,-3.60152 -4.45676,-0.92116 -9.454132,-4.90895 -10.401652,-8.30026 -0.22796,-0.8159 -0.41447,-8.82001 -0.41447,-17.7869 v -16.30344 l 1.48253,-2.52201 c 1.83484,-3.12136 5.295112,-5.56592 9.004652,-6.36147 1.9662,-0.42168 10.27996,-0.53228 27.43744,-0.36502 23.78043,0.23183 24.69079,0.27842 26.80522,1.37188 2.53026,1.3085 5.37185,4.35088 6.43073,6.88513 0.56783,1.35903 0.73493,5.38517 0.73493,17.70735 v 15.94838 l -1.36247,2.73414 c -1.36035,2.72987 -3.26505,4.55275 -6.49543,6.21644 -1.36988,0.7055 -3.39336,0.88567 -10.15624,0.90431 -4.64505,0.0128 -9.41677,0.21171 -10.60384,0.44201 -1.57291,0.30517 -4.11009,1.93563 -9.35443,6.0114 -14.74519,11.45963 -15.51735,11.92861 -17.95341,10.90432 z m 14.70001,-18.93628 c 5.34043,-4.03788 8.27544,-5.90798 9.62171,-6.13064 1.06545,-0.17622 5.68984,-0.32305 10.27641,-0.32629 8.83222,-0.006 11.34773,-0.47583 12.32441,-2.30075 0.4029,-0.75284 0.56887,-5.88355 0.51255,-15.84486 l -0.0833,-14.73151 -1.33795,-1.3378 -1.33796,-1.33781 h -23.90832 c -13.14958,0 -24.58566,0.18897 -25.41353,0.41993 -2.69818,0.75276 -3.03988,2.62004 -3.02562,16.53452 0.007,6.84486 0.22986,13.38108 0.49521,14.52494 0.73775,3.1802 1.62302,3.74363 6.43793,4.09743 5.84758,0.42968 6.41758,1.00022 6.41758,6.42363 0,4.0627 0.30456,5.85149 0.99264,5.83013 0.18904,-0.006 3.80174,-2.62528 8.02822,-5.82092 z"
           id="path91"
           inkscape:connector-curvature="0" />
        <path
           style="fill:#00d455;fill-opacity:1;stroke-width:0.53453904"
           d="m 112.4826,42.089061 c -1.32165,-1.6802 -1.37007,-2.41394 -0.29635,-4.4903 0.97513,-1.88569 2.90537,-2.48077 5.09921,-1.57205 2.78981,1.15557 3.42357,3.66016 1.53401,6.06235 -0.85454,1.08637 -1.57905,1.40843 -3.16844,1.40843 -1.58938,0 -2.31389,-0.32206 -3.16843,-1.40843 z"
           id="path93"
           inkscape:connector-curvature="0" />
        <path
           style="fill:#00d455;fill-opacity:1;stroke-width:0.53453904"
           d="m 128.03861,42.260331 c -1.54175,-1.64113 -1.48159,-3.83748 0.1498,-5.46887 1.51583,-1.51584 3.27598,-1.67591 5.01722,-0.4563 1.82808,1.28044 2.3758,3.17886 1.4395,4.98944 -1.31044,2.53413 -4.6593,3.00845 -6.60652,0.93573 z"
           id="path95"
           inkscape:connector-curvature="0" />
        <path
           style="fill:#00d455;fill-opacity:1;stroke-width:0.53453904"
           d="m 143.47421,43.092421 c -1.74135,-1.41005 -1.6507,-4.2513 0.18605,-5.83121 1.68923,-1.45301 2.49104,-1.53483 4.55942,-0.46522 2.45471,1.26937 2.87045,3.53681 1.06851,5.82761 -1.32773,1.68793 -4.0385,1.90652 -5.81398,0.46882 z"
           id="path97"
           inkscape:connector-curvature="0" />
      </g>
    </clipPath>
  </defs>
  <sodipodi:namedview
     id="base"
     pagecolor="#ffffff"
     bordercolor="#666666"
     borderopacity="1.0"
     inkscape:pageopacity="0.0"
     inkscape:pageshadow="2"
     inkscape:zoom="0.70710678"
     inkscape:cx="167.665"
     inkscape:cy="668.3235"
     inkscape:document-units="mm"
     inkscape:current-layer="layer7"
     showgrid="false"
     inkscape:window-width="1920"
     inkscape:window-height="1017"
     inkscape:window-x="-8"
     inkscape:window-y="-8"
     inkscape:window-maximized="1" />
  <metadata
     id="metadata25">
    <rdf:RDF>
      <cc:Work
         rdf:about="">
        <dc:format>image/svg+xml</dc:format>
        <dc:type
           rdf:resource="http://purl.org/dc/dcmitype/StillImage" />
        <dc:title />
      </cc:Work>
    </rdf:RDF>
  </metadata>
  <g
     inkscape:groupmode="layer"
     id="layer7"
     inkscape:label="Layer 6"
     transform="translate(0,-49.999998)">
    <ellipse
       style="fill:#ffffff;fill-opacity:1;stroke-width:0.26458332"
       id="path4870-9"
       cx="-138.71725"
       cy="168.84225"
       rx="30.805059"
       ry="28.726191" />
    <ellipse
       style="fill:#ffffff;fill-opacity:1;stroke-width:0.26458332"
       id="path4900"
       cx="-211.66666"
       cy="132.17857"
       rx="26.836309"
       ry="27.59226" />
    <path
       style="fill:#00d455;fill-opacity:1"
       d="M 167.10747,278.34952 C 77.46603,267.88856 9.61299,202.89053 6.13231,124.14762 5.58589,111.78605 6.32874,107.60437 10.31378,100.60918 16.21527,90.2499 27.66558,83.042267 40.90351,81.353852 c 3.01426,-0.384451 10.0944,-0.705309 15.73364,-0.713018 11.75701,-0.01607 15.00016,0.786241 17.00525,4.206894 1.59851,2.727045 18.86517,48.451832 18.86517,49.957902 0,2.50557 -2.72351,5.26342 -10.70149,10.83639 -9.57786,6.69058 -9.19582,5.3534 -4.09978,14.34927 13.54017,23.902 36.35117,44.15644 62.81863,55.77815 11.10503,4.87616 9.35557,5.23619 17.41791,-3.58446 5.54771,-6.0695 7.70002,-7.9106 9.93989,-8.50262 2.62228,-0.69311 5.07311,-0.10428 29.60721,7.11326 14.71155,4.32791 27.81953,8.35763 29.12885,8.95495 4.23766,1.93323 4.91435,4.72415 4.44421,18.32957 -0.32789,9.48897 -0.76848,13.00811 -2.08581,16.65992 -4.04438,11.21158 -14.5774,20.04894 -28.12449,23.59687 -5.43281,1.42284 -21.60893,1.42887 -33.74523,0.0126 z m 32.40358,-15.74978 c 4.80813,-1.87632 9.07632,-5.42588 11.53774,-9.59513 1.9002,-3.21864 2.15896,-4.54724 2.43138,-12.48376 l 0.30487,-8.88179 -20.21822,-5.87605 c -16.79861,-4.8822 -20.3839,-5.71391 -21.19782,-4.91749 -0.53878,0.5272 -2.92232,3.02844 -5.29676,5.55831 -8.58479,9.14676 -9.59515,9.90721 -13.16249,9.90682 -4.13584,-4.6e-4 -9.54936,-1.82814 -22.12797,-7.47072 -29.718,-13.33107 -52.85161,-33.63978 -68.06818,-59.75619 -8.87184,-15.22687 -10.5083,-20.31326 -7.68111,-23.87414 0.67426,-0.84925 4.82538,-4.14048 9.22471,-7.31385 4.39933,-3.17336 7.99977,-5.97266 8.00096,-6.22066 8e-4,-0.248 -2.95121,-8.36294 -6.56091,-18.03319 l -6.56307,-17.582272 -10.0837,0.269314 c -9.01323,0.240722 -10.51713,0.468466 -14.16665,2.145321 -6.71679,3.086187 -10.94989,8.139987 -12.37642,14.775917 -1.49617,6.9599 1.33433,29.45401 5.33382,42.38811 2.36232,7.63959 7.9712,20.29496 12.45739,28.10773 24.45782,42.59365 72.22933,72.71726 125.40778,79.07925 17.03028,2.03742 27.18465,1.96761 32.80465,-0.22553 z M 141.0373,187.20969 c -4.59386,-1.76625 -4.77816,-2.35254 -5.21366,-16.58524 l -0.40107,-13.10768 -4.41182,-0.80244 c -6.08662,-1.10707 -10.22683,-3.16749 -14.54131,-7.23667 -6.55778,-6.18492 -6.71565,-7.0798 -6.71565,-38.06784 0,-24.641387 0.12817,-27.215902 1.5322,-30.776015 2.11621,-5.365949 8.81176,-11.245804 15.21121,-13.358092 4.67427,-1.542847 4.96119,-1.550074 53.73811,-1.353481 48.60933,0.195917 49.07223,0.211291 52.86326,1.755665 5.3713,2.188136 11.32157,7.805668 13.3606,12.613468 1.57964,3.724619 1.6654,5.326984 1.6654,31.118455 0,25.6076 -0.095,27.41569 -1.63105,31.03747 -2.07716,4.89771 -6.64455,9.47712 -12.12148,12.15336 l -4.29584,2.09912 -19.68814,0.35383 -19.68815,0.35383 -3.57419,2.44316 c -1.9658,1.34375 -4.67489,3.25442 -6.02018,4.24593 -1.3453,0.99153 -3.87207,2.80657 -5.61504,4.03342 -1.74299,1.22686 -8.04211,5.67508 -13.99807,9.88493 -10.19821,7.2084 -15.29326,10.21177 -17.21529,10.14787 -0.45819,-0.0152 -1.91611,-0.44411 -3.23984,-0.95305 z m 42.78239,-44.24645 c 1.04421,-0.493 8.4475,-0.77041 20.56076,-0.77041 21.48885,0 23.34313,-0.32596 25.58719,-4.49788 1.22702,-2.28115 1.34693,-5.15232 1.14092,-27.31899 l -0.23021,-24.769933 -2.62189,-2.312692 -2.62188,-2.312691 -44.70493,-0.217244 c -31.11396,-0.151197 -45.63109,0.02187 -47.75135,0.569288 -2.01409,0.519999 -3.57606,1.552828 -4.60937,3.047865 -1.46994,2.126777 -1.56311,3.726666 -1.56593,26.887497 -0.004,31.32 -0.49528,30.2282 13.92484,30.9347 7.39729,0.36242 8.03622,0.51531 9.82633,2.35128 1.78368,1.82937 1.91461,2.53363 1.91461,10.29812 0,4.58395 0.22312,8.53129 0.49582,8.77187 0.2727,0.24057 6.91451,-4.13634 14.75958,-9.72648 7.84508,-5.59014 14.99806,-10.51057 15.89551,-10.9343 z m -36.82766,-26.19157 c -5.06786,-4.47086 -1.56998,-12.79223 5.37721,-12.79223 8.10862,0 12.17719,7.58097 6.79598,12.66296 -1.96161,1.85255 -2.9164,2.19781 -6.07782,2.19781 -3.07589,0 -4.17244,-0.37213 -6.09537,-2.06854 z M 172.71724,116.25 c -2.25577,-2.26654 -2.52294,-2.95188 -2.138,-5.48434 1.20184,-7.90653 12.8363,-9.35738 16.30513,-2.03329 2.36439,4.99218 -1.77092,10.10784 -8.17081,10.10784 -2.93095,0 -3.786,-0.36935 -5.99632,-2.59021 z m 27.37211,1.43624 c -4.79106,-2.96047 -4.70561,-9.71052 0.15601,-12.32565 3.98358,-2.14282 7.44616,-1.8099 10.65947,1.02488 3.6564,3.22567 3.73321,6.4412 0.23777,9.95331 -2.1031,2.11313 -3.00927,2.50143 -5.83765,2.50143 -1.84144,0 -4.18847,-0.51929 -5.2156,-1.15397 z"
       id="path77"
       inkscape:connector-curvature="0" />
    <path
       style="fill:#00d455;fill-opacity:1;stroke-width:2.85714293"
       d="M 651.46383,863.71617 C 556.22457,855.40494 454.30643,825.84891 367.28386,781.30468 222.66773,707.28 107.75891,581.51571 57.347754,442.08885 34.93731,380.10616 25.908911,329.58347 25.814786,265.63117 l -0.06524,-44.32863 9.76071,-19.95709 c 13.211696,-27.01308 38.76211,-52.05281 66.500634,-65.17145 32.30433,-15.27799 45.94661,-17.55017 105.6657,-17.59908 49.16663,-0.0403 53.96489,0.41083 61.1161,5.74565 5.8473,4.36209 12.51575,17.88209 27.04924,54.84122 28.15278,71.59339 51.33618,135.97174 51.33618,142.55621 0,7.14001 -10.39608,17.26294 -42.28017,41.16929 -29.76146,22.31484 -30.07306,23.96827 -10.61727,56.33796 46.57507,77.48955 111.50782,140.83555 189.27062,184.6454 35.05085,19.74689 72.23931,36.08915 82.12451,36.08915 5.84146,0 13.89797,-6.53078 35.25143,-28.57549 27.14843,-28.02729 27.931,-28.57543 40.7912,-28.57143 12.71663,0.003 69.86214,15.45363 168.15131,45.46092 58.80629,17.95331 60.20635,19.12462 62.20929,52.04494 0.80068,13.15971 0.0286,38.06963 -1.71649,55.35534 -2.55597,25.32283 -4.90714,34.96626 -12.1024,49.63834 -17.57428,35.83629 -59.49654,67.21189 -101.77554,76.1712 -17.77817,3.76738 -73.78889,4.95803 -105.02077,2.23255 z M 759.0218,802.21985 c 18.93106,-8.66691 35.62034,-24.61371 42.4654,-40.57608 3.21571,-7.49895 5.65806,-23.1308 6.81869,-43.64189 l 1.80834,-31.95791 -23.61092,-7.12915 C 739.97417,664.86571 682.11489,648.61054 667.41826,645.45868 l -14.9622,-3.20883 -25.36386,27.02497 c -13.95011,14.86375 -29.45589,28.71998 -34.45729,30.79163 -13.16368,5.45257 -32.18825,0.68306 -81.44614,-20.41883 -109.0604,-46.72105 -193.36,-115.12228 -253.14334,-205.40211 -25.66314,-38.75434 -48.45949,-84.46987 -48.84149,-97.94611 -0.36909,-13.02101 2.98139,-16.72868 39.99754,-44.26151 16.17286,-12.02948 29.35881,-22.56105 29.30211,-23.40351 -0.0567,-0.84245 -11.30671,-31.57658 -25,-68.29807 l -24.8969,-66.76634 -34.97684,0.48489 c -21.0871,0.29233 -40.609,2.15746 -49.15963,4.69673 -18.59866,5.52321 -36.52572,19.48504 -47.230874,36.78405 -7.881826,12.73664 -8.7169,16.50016 -9.601215,43.27087 -2.3347,70.67824 16.841039,147.47351 56.614909,226.7322 59.97871,119.52154 176.14825,221.07911 317.14065,277.25029 77.41714,30.84288 173.22394,49.2296 247.38102,47.476 29.74563,-0.70338 36.61192,-1.80275 50.24709,-8.04515 z"
       id="path79"
       inkscape:connector-curvature="0"
       transform="matrix(0.26458333,0,0,0.26458333,0,49.999998)" />
    <path
       style="fill:#00d455;fill-opacity:1;stroke-width:2.85714293"
       d="m 528.1802,514.45185 c -10.6907,-6.5188 -11.39863,-9.94594 -14.06485,-68.09003 l -1.8682,-40.74082 -7.53452,-1.6514 c -34.38658,-7.53689 -55.08097,-18.23849 -71.55762,-37.00438 -15.11585,-17.216 -15.9769,-24.59964 -15.9769,-137.00542 0,-101.92211 0.0605,-102.97995 6.65292,-116.36551 8.6207,-17.503826 31.12178,-37.585646 49.91385,-44.547231 20.95195,-7.761722 82.83267,-9.390523 257.71895,-6.783582 161.84926,2.412605 152.35111,0.97295 179.31551,27.179333 24.595,23.90362 23.54163,17.5522 23.54163,141.94556 0,107.3433 -0.14943,110.27912 -6.18774,121.557 -7.87852,14.71483 -27.92914,33.238 -45.69737,42.21614 -13.40643,6.77414 -16.10246,7.02211 -88.1936,8.11223 l -74.36443,1.12451 -66.34919,47.06649 C 552.05874,523.445 547.05354,525.96011 528.1802,514.45185 Z m 116.14077,-127.02743 50,-34.60748 27.14286,-1.85654 c 14.92857,-1.02109 48.35714,-1.99255 74.28571,-2.15878 55.69323,-0.35708 66.58686,-2.638 73.56686,-15.40343 4.49651,-8.2235 4.98649,-18.84401 4.8264,-104.61459 l -0.17829,-95.46192 -9.2586,-7.72943 c -6.31054,-5.26826 -13.98674,-8.29743 -24.10754,-9.51325 -20.47417,-2.45959 -308.10478,-1.83654 -328.51655,0.71161 -12.46255,1.55579 -18.43263,3.96969 -24.28572,9.81954 l -7.76084,7.75663 -0.90598,83.97143 c -0.95693,88.69377 1.17725,113.1627 10.70069,122.68614 4.29619,4.29619 12.05058,6.00622 36.40359,8.02779 17.0195,1.41283 33.69539,3.9434 37.05753,5.62354 9.65717,4.82589 12.45845,14.93117 12.45845,44.94237 0,15.37843 0.86165,28.82246 1.91479,29.87557 2.33541,2.33543 4.22524,1.14269 66.65664,-42.0692 z"
       id="path81"
       inkscape:connector-curvature="0"
       transform="matrix(0.26458333,0,0,0.26458333,0,49.999998)" />
    <path
       style="fill:#00d455;fill-opacity:1;stroke-width:2.85714293"
       d="m 567.17811,257.942 c -7.94687,-2.90502 -16.83477,-12.93239 -18.60443,-20.98961 -3.99234,-18.177 13.94178,-33.67507 35.0802,-30.31514 10.99152,1.74709 26.38138,15.27033 26.38138,23.18162 0,19.39824 -23.87206,35.06324 -42.85715,28.12313 z"
       id="path83"
       inkscape:connector-curvature="0"
       transform="matrix(0.26458333,0,0,0.26458333,0,49.999998)" />
    <path
       style="fill:#00d455;fill-opacity:1;stroke-width:2.85714293"
       d="m 665.51651,257.29977 c -10.14427,-4.28822 -21.60309,-20.07791 -19.55875,-26.95101 4.81553,-16.18989 15.66391,-24.67468 31.54824,-24.67468 18.24959,0 33.44852,18.21865 27.98671,33.54713 -4.99279,14.01219 -26.54206,23.75749 -39.9762,18.07856 z"
       id="path85"
       inkscape:connector-curvature="0"
       transform="matrix(0.26458333,0,0,0.26458333,0,49.999998)" />
    <path
       style="fill:#00d455;fill-opacity:1;stroke-width:2.85714293"
       d="m 765.0989,257.63435 c -22.84066,-7.03445 -27.91857,-34.51955 -8.55839,-46.32393 16.77264,-10.2267 37.85924,-4.91647 46.45074,11.69768 5.37329,10.39078 3.88332,16.29324 -6.66366,26.39789 -8.48838,8.13239 -20.91171,11.40577 -31.22869,8.22836 z"
       id="path87"
       inkscape:connector-curvature="0"
       transform="matrix(0.26458333,0,0,0.26458333,0,49.999998)" />
    <path
       style="fill:#00d455;fill-opacity:1;stroke-width:0.06313454"
       d="m 617.09564,861.20283 c -0.34724,-0.0493 -1.76776,-0.24708 -3.15672,-0.43958 -56.85124,-7.87881 -112.19124,-21.77261 -165.34935,-41.51305 l -2.27284,-0.84402 2.9421,-0.0164 2.9421,-0.0164 2.3612,0.85891 c 48.69305,17.7125 99.34371,30.84485 149.02272,38.63756 3.45657,0.54221 8.20197,1.24794 11.20638,1.66661 1.5105,0.21049 2.85289,0.39896 2.98311,0.41881 l 0.23675,0.0361 v 0.65736 c 0,0.76268 0.10532,0.69894 -0.91545,0.5541 z"
       id="path101"
       inkscape:connector-curvature="0"
       transform="matrix(0.26458333,0,0,0.26458333,0,49.999998)" />
    <path
       style="fill:#00d455;fill-opacity:1;stroke-width:0.17857143"
       d="M 439.91842,815.8881 C 379.31544,792.4769 322.37382,761.42552 271.98323,724.30976 l -2.1316,-1.57006 1.5066,3.9e-4 1.50661,3.8e-4 4.55358,3.31836 c 44.2417,32.24056 91.01346,58.31107 144.32251,80.44516 6.97309,2.89525 16.83031,6.79617 23.62391,9.349 3.04465,1.14408 5.69643,2.15172 5.89286,2.2392 0.22889,0.10194 -0.63686,0.16207 -2.41071,0.16744 l -2.76786,0.008 -6.16071,-2.37991 z"
       id="path103"
       inkscape:connector-curvature="0"
       transform="matrix(0.26458333,0,0,0.26458333,0,49.999998)" />
    <path
       style="fill:#00d455;fill-opacity:1;stroke-width:0.17857143"
       d="m 630.72199,805.75311 c -1.375,-0.18697 -4.58929,-0.62174 -7.14286,-0.96616 -50.24227,-6.77641 -104.76816,-20.4103 -150.89286,-37.72991 -28.52439,-10.71077 -57.53127,-24.03835 -85.08928,-39.09534 -31.18558,-17.03901 -62.45648,-37.62678 -89.7103,-59.06241 -3.79032,-2.98117 -4.0455,-3.21716 -3.53422,-3.26856 0.4802,-0.0483 1.14337,0.40908 5.15672,3.55634 89.40619,70.11216 200.2319,116.93171 315.49851,133.28585 4.16931,0.59155 18.20659,2.40964 18.60454,2.40964 0.0309,0 0.0562,0.28125 0.0562,0.625 0,0.39148 -0.0834,0.61762 -0.22322,0.60526 -0.12277,-0.0109 -1.34821,-0.17273 -2.72321,-0.35971 z"
       id="path105"
       inkscape:connector-curvature="0"
       transform="matrix(0.26458333,0,0,0.26458333,0,49.999998)" />
    <path
       style="fill:#00d455;fill-opacity:1;stroke-width:0.17857143"
       d="m 264.82913,718.96206 c -27.2483,-20.56861 -53.40278,-43.64461 -76.29313,-67.31317 -3.57225,-3.6937 -6.61553,-6.88789 -6.76285,-7.09821 -0.26692,-0.38109 -0.26302,-0.38241 1.133,-0.38241 h 1.40084 l 2.13607,2.27397 c 6.28061,6.68606 20.29393,20.51347 28.74376,28.36243 16.95291,15.74737 35.44922,31.23241 53.30302,44.62508 2.20983,1.65765 4.0942,3.08052 4.1875,3.16193 0.0933,0.0814 -0.50937,0.14727 -1.33928,0.14634 l -1.50893,-0.002 -5,-3.77429 z"
       id="path107"
       inkscape:connector-curvature="0"
       transform="matrix(0.26458333,0,0,0.26458333,0,49.999998)" />
    <path
       style="fill:#00d455;fill-opacity:1;stroke-width:0.17857143"
       d="m 290.32013,662.85604 c -42.68672,-34.58714 -79.41669,-73.59497 -109.23481,-116.0092 -4.75312,-6.76097 -15.80976,-23.56247 -15.80976,-24.02425 0,-0.058 0.24917,-0.0803 0.55371,-0.0496 0.51087,0.0516 0.75665,0.37376 3.17641,4.1631 15.36031,24.0542 33.21273,47.54907 52.96707,69.70785 14.47842,16.24071 31.69354,33.40588 48.39209,48.25171 6.11699,5.43829 15.21303,13.14262 21.64147,18.33028 2.72068,2.19554 2.86044,2.33792 2.36601,2.41049 -0.45963,0.0675 -0.96737,-0.28093 -4.05219,-2.78042 z"
       id="path109"
       inkscape:connector-curvature="0"
       transform="matrix(0.26458333,0,0,0.26458333,0,49.999998)" />
    <path
       style="fill:#00d455;fill-opacity:1;stroke-width:0.17857143"
       d=""
       id="path111"
       inkscape:connector-curvature="0"
       transform="matrix(0.26458333,0,0,0.26458333,0,49.999998)" />
    <path
       style="fill:#00d455;fill-opacity:1;stroke-width:0.17857143"
       d="m 578.84699,703.96313 c -13.51897,-0.60487 -31.95854,-6.70267 -68.125,-22.52829 -6.41082,-2.80523 -15.77875,-7.00233 -19.91072,-8.92057 -55.47149,-25.75232 -104.37311,-57.69179 -146.875,-95.92953 -11.63504,-10.46772 -25.87835,-24.56883 -36.35586,-35.9929 -4.89143,-5.33333 -14.96027,-16.84712 -15.39408,-17.60324 -0.11526,-0.20089 0.0615,-0.2489 0.91653,-0.2489 h 1.05934 l 3.09862,3.61607 c 52.79448,61.61067 119.21302,110.48971 200.06831,147.23522 16.16623,7.34691 36.69745,15.81852 49.64286,20.48369 23.12235,8.33267 36.66423,10.10292 45.75435,5.98125 5.59663,-2.53762 19.69318,-15.191 35.24879,-31.64008 l 5.69329,-6.02029 v 0.91486 c 0,0.85783 -0.0584,0.97707 -0.93756,1.91314 -22.96484,24.45237 -30.37948,31.59251 -36.82812,35.46471 -4.70929,2.82777 -8.93107,3.6384 -17.05575,3.27486 z"
       id="path113"
       inkscape:connector-curvature="0"
       transform="matrix(0.26458333,0,0,0.26458333,0,49.999998)" />
    <path
       style="fill:#00d455;fill-opacity:1;stroke-width:0.17857143"
       d="m 563.84699,639.77437 c -9.74965,-1.78291 -26.50242,-8.46697 -49.375,-19.69974 -44.48774,-21.84801 -81.77018,-46.47299 -116.96429,-77.25466 -6.64535,-5.8122 -17.32121,-15.69544 -20.625,-19.09371 l -0.98214,-1.01023 0.55516,0.0565 c 0.44526,0.0453 1.39976,0.85406 4.82143,4.08529 38.12884,36.00663 79.67573,65.21495 125.69484,88.36605 9.12403,4.59008 13.37689,6.58206 27.76785,13.00604 19.27268,8.60312 22.72915,9.98437 27.41072,10.95365 1.19328,0.24706 4.47139,0.31844 5.98214,0.13025 l 0.98214,-0.12234 -0.80357,0.27117 c -0.80089,0.27027 -3.6161,0.46686 -4.46428,0.31175 z"
       id="path117"
       inkscape:connector-curvature="0"
       transform="matrix(0.26458333,0,0,0.26458333,0,49.999998)" />
    <path
       style="fill:#00d455;fill-opacity:1;stroke-width:0.17857143"
       d="M 178.88136,641.4984 C 172.38934,634.4649 167.26645,628.71443 161.77219,622.29327 112.11046,564.25345 74.697899,499.0667 51.342103,429.88256 c -1.735937,-5.14217 -4.561054,-13.92519 -4.561054,-14.17989 0,-0.0582 0.348941,-0.10583 0.775424,-0.10583 h 0.775425 l 0.504354,1.65179 c 1.599201,5.23746 6.522946,19.60896 9.375748,27.36607 24.906872,67.72475 65.23423,132.91254 118.2015,191.06865 1.42983,1.56991 3.78421,4.11514 5.23196,5.6561 l 2.63228,2.80173 -1.42482,0.0582 -1.42481,0.0582 z"
       id="path119"
       inkscape:connector-curvature="0"
       transform="matrix(0.26458333,0,0,0.26458333,0,49.999998)" />
    <path
       style="fill:#00d455;fill-opacity:1;stroke-width:0.17857143"
       d="m 164.75646,522.07006 c -2.7307,-4.33397 -9.08015,-15.21838 -12.21395,-20.9375 -9.85802,-17.99067 -19.75675,-38.87064 -28.44464,-60 -3.23499,-7.86764 -8.09382,-20.61544 -7.9836,-20.94608 0.0338,-0.10135 0.32896,0.53212 0.65596,1.40769 2.35151,6.2965 8.42353,20.91923 12.59934,30.34196 11.94849,26.96179 23.30864,48.87751 35.38202,68.25816 0.82156,1.3188 1.49374,2.43103 1.49374,2.47161 0,0.0406 -0.24006,0.0738 -0.53347,0.0738 -0.4224,0 -0.62132,-0.13942 -0.9554,-0.66964 z"
       id="path121"
       inkscape:connector-curvature="0"
       transform="matrix(0.26458333,0,0,0.26458333,0,49.999998)" />
    <path
       style="fill:#00d455;fill-opacity:1;stroke-width:0.17857143"
       d="m 46.310609,414.3022 c -0.208575,-0.71205 -0.915839,-3.10268 -1.571698,-5.3125 -10.777846,-36.31437 -17.99222,-76.32173 -20.624805,-114.375 -0.197044,-2.84821 -0.401366,-5.72098 -0.454049,-6.38393 l -0.09579,-1.20535 h 1.243155 1.243156 l 0.08852,0.58035 c 0.04868,0.3192 0.135637,2.02679 0.193226,3.79465 0.295853,9.08197 1.341241,22.77999 2.602945,34.10714 3.150654,28.28548 9.047857,56.3397 18.017774,85.71428 0.689793,2.25893 1.254711,4.16742 1.255373,4.24108 7.15e-4,0.0737 -0.340748,0.13392 -0.758689,0.13392 h -0.759891 z"
       id="path123"
       inkscape:connector-curvature="0"
       transform="matrix(0.26458333,0,0,0.26458333,0,49.999998)" />
    <path
       style="fill:#00d455;fill-opacity:1;stroke-width:0.17857143"
       d=""
       id="path125"
       inkscape:connector-curvature="0"
       transform="matrix(0.26458333,0,0,0.26458333,0,49.999998)" />
    <path
       style="fill:#00d455;fill-opacity:1;stroke-width:0.17857143"
       d="m 23.503304,285.01649 c -0.736641,-12.7715 -1.006027,-34.70111 -0.510559,-41.5625 0.501868,-6.95002 1.206212,-12.6391 2.144506,-17.32143 l 0.483083,-2.41072 0.108232,27.85715 c 0.05953,15.32143 0.172753,29.56473 0.251612,31.65178 l 0.143379,3.79465 h -1.252191 -1.25219 z"
       id="path127"
       inkscape:connector-curvature="0"
       transform="matrix(0.26458333,0,0,0.26458333,0,49.999998)" />
    <path
       style="fill:#00d455;fill-opacity:1;stroke-width:0.17857143"
       d="m 106.438,391.61522 c -0.008,-0.0783 -0.57008,-2.04704 -1.24962,-4.375 -10.665554,-36.53793 -16.408434,-71.4835 -17.510875,-106.55409 -0.234392,-7.4564 -0.194349,-9.16407 0.102587,-4.375 2.022291,32.61605 8.146473,72.54078 15.966878,104.09119 0.76903,3.10253 1.72815,6.84019 2.1314,8.30593 0.40324,1.46573 0.6973,2.75145 0.65345,2.85714 -0.0438,0.10569 -0.0861,0.12812 -0.0938,0.0498 z"
       id="path129"
       inkscape:connector-curvature="0"
       transform="matrix(0.26458333,0,0,0.26458333,0,49.999998)" />
    <path
       style="fill:#00d455;fill-opacity:1;stroke-width:0.06313454"
       d="m 88.71576,239.33727 c -0.01266,-0.18138 0.3167,-2.82582 0.502454,-4.03427 0.919446,-5.9816 2.40537,-10.12656 5.65297,-15.76888 3.68848,-6.4083 6.888676,-10.88721 11.383586,-15.93217 1.22681,-1.37693 4.9119,-5.08329 6.35089,-6.38754 8.99762,-8.15513 19.35899,-14.33551 29.83106,-17.79373 4.18974,-1.38358 8.43276,-2.24113 15.4364,-3.1198 10.45248,-1.31137 22.57357,-2.03229 37.78602,-2.24737 16.57741,-0.23438 27.10841,-0.37694 27.85811,-0.37712 l 0.8681,-2.1e-4 v 0.21475 0.21474 l -0.71026,0.0385 c -0.39065,0.0212 -6.67648,0.19538 -13.96852,0.3871 -23.9222,0.62895 -25.0027,0.65889 -30.74652,0.85205 -21.92038,0.73715 -29.30367,1.848 -38.92244,5.85607 -12.37033,5.15462 -22.20471,11.46054 -30.29698,19.42679 -5.9723,5.87929 -10.616717,12.21268 -14.306059,19.50857 -2.750707,5.43968 -4.96122,11.57825 -6.308933,17.51983 -0.367809,1.62154 -0.401837,1.75792 -0.409878,1.64267 z"
       id="path131"
       inkscape:connector-curvature="0"
       transform="matrix(0.26458333,0,0,0.26458333,0,49.999998)" />
    <path
       style="fill:#00d455;fill-opacity:1;stroke-width:0.03156727"
       d="m 91.87525,140.42617 0.0083,-1.11186 0.943512,-0.53277 c 9.234828,-5.21464 19.109168,-9.56652 29.410068,-12.96182 10.54168,-3.47465 21.6424,-5.96639 32.71782,-7.34404 5.43321,-0.67583 15.49449,-1.39726 25.53792,-1.83117 0.60767,-0.0263 1.20074,-0.0543 1.31793,-0.0622 l 0.21308,-0.0145 v 1.11536 1.11535 l -0.60767,0.0196 c -0.33422,0.0108 -1.16878,0.034 -1.85458,0.0516 -21.18098,0.5431 -34.6453,2.07364 -46.78269,5.31795 -7.92409,2.1181 -15.74389,5.05542 -26.13769,9.818 -6.55163,3.00204 -10.165351,4.83668 -14.347325,7.28393 -0.208344,0.12192 -0.389644,0.22772 -0.402889,0.23511 -0.01324,0.007 -0.02035,-0.48689 -0.01578,-1.09841 z"
       id="path133"
       inkscape:connector-curvature="0"
       transform="matrix(0.26458333,0,0,0.26458333,0,49.999998)" />
    <path
       style="fill:#00d455;fill-opacity:1;stroke-width:0.01578363"
       d="m 26.627022,219.4477 c 0.04184,-0.20651 0.624186,-2.19124 0.907697,-3.09359 1.36359,-4.33999 3.065891,-8.64561 5.23202,-13.23331 0.336592,-0.71288 0.872063,-1.81836 0.888955,-1.83526 0.0071,-0.007 0.432956,-0.0111 0.946296,-0.009 l 0.933346,0.004 -4.438981,9.07559 c -2.44144,4.99157 -4.44797,9.08979 -4.458954,9.10715 -0.01808,0.0286 -0.01906,0.0271 -0.01038,-0.0158 z"
       id="path135"
       inkscape:connector-curvature="0"
       transform="matrix(0.26458333,0,0,0.26458333,0,49.999998)" />
    <path
       style="fill:#00d455;fill-opacity:1;stroke-width:0.01578363"
       d="m 26.650988,219.38821 c 0,-0.0717 0.683179,-2.3836 0.980571,-3.31821 1.490667,-4.68466 3.390135,-9.37147 5.819479,-14.35916 l 0.205645,-0.42221 h 0.932155 0.932154 l -0.03762,0.0829 c -0.02069,0.0456 -0.788449,1.61704 -1.706132,3.49213 -0.917684,1.8751 -2.551179,5.21334 -3.629988,7.41831 -2.661855,5.44056 -3.483193,7.11722 -3.490276,7.125 -0.0033,0.004 -0.006,-0.005 -0.006,-0.0187 z"
       id="path137"
       inkscape:connector-curvature="0"
       transform="matrix(0.26458333,0,0,0.26458333,0,49.999998)" />
    <path
       style="fill:#00d455;fill-opacity:1;stroke-width:0.03156727"
       d="m 33.682177,201.24385 c 2.6e-5,-0.0378 1.266713,-2.53173 1.830596,-3.60417 1.655705,-3.14898 3.589606,-6.6044 5.061672,-9.04402 3.103588,-5.1435 6.595507,-10.11499 10.387831,-14.78927 0.464586,-0.57263 1.730031,-2.09845 1.997079,-2.40799 l 0.08936,-0.10357 1.429242,0.009 1.429242,0.009 -0.292821,0.33175 c -7.926295,8.97996 -14.7037,18.88102 -19.531564,28.5335 l -0.537409,1.07446 -0.931623,0.009 c -0.512392,0.005 -0.931614,-0.003 -0.931604,-0.0172 z"
       id="path139"
       inkscape:connector-curvature="0"
       transform="matrix(0.26458333,0,0,0.26458333,0,49.999998)" />
    <path
       style="fill:#00d455;fill-opacity:1;stroke-width:0.03156727"
       d="m 33.713763,201.22221 c 0,-0.0619 1.389563,-2.7887 2.139313,-4.19809 2.094925,-3.93808 4.073259,-7.40155 5.815064,-10.18045 3.34239,-5.33248 6.804313,-10.0807 10.943937,-15.01023 l 0.437397,-0.52086 0.402103,5.6e-4 c 0.221156,3.1e-4 0.857298,0.004 1.41365,0.008 l 1.011548,0.007 -0.547245,0.62346 c -7.764163,8.8454 -14.344212,18.47616 -19.185088,28.07989 l -0.615562,1.22121 -0.907559,6e-4 c -0.591042,4e-4 -0.907558,-0.0105 -0.907558,-0.0313 z"
       id="path141"
       inkscape:connector-curvature="0"
       transform="matrix(0.26458333,0,0,0.26458333,0,49.999998)" />
    <path
       style="fill:#00d455;fill-opacity:1;stroke-width:0.03156727"
       d="m 53.18428,171.13254 c 0.976597,-1.16644 2.971284,-3.38582 4.636369,-5.15865 0.990342,-1.05442 4.507961,-4.57197 5.573961,-5.57386 6.301903,-5.92287 12.645935,-10.95403 19.845845,-15.73885 l 1.252899,-0.83263 1.796684,0.008 1.796686,0.008 -0.539987,0.34546 c -11.298769,7.22853 -21.890808,16.25936 -31.093402,26.51039 l -0.53135,0.59189 H 54.48613 53.050276 Z"
       id="path143"
       inkscape:connector-curvature="0"
       transform="matrix(0.26458333,0,0,0.26458333,0,49.999998)" />
    <path
       style="fill:#00d455;fill-opacity:1;stroke-width:0.03156727"
       d="m 84.579675,143.80147 c 0.02168,-0.0628 2.715177,-1.7596 4.450761,-2.80384 1.069994,-0.64378 2.711372,-1.60716 2.788916,-1.63692 0.04121,-0.0158 0.04699,0.11952 0.04624,1.08226 l -8.65e-4,1.10034 -0.717194,0.42616 c -0.771811,0.45861 -1.703444,1.02748 -2.524431,1.54145 l -0.512787,0.32102 h -1.770579 c -1.124222,0 -1.766738,-0.0111 -1.760057,-0.0305 z"
       id="path145"
       inkscape:connector-curvature="0"
       transform="matrix(0.26458333,0,0,0.26458333,0,49.999998)" />
    <path
       style="fill:#00d455;fill-opacity:1;stroke-width:0.03156727"
       d="m 257.50534,119.83519 c -4.70149,-0.67693 -10.73767,-0.99701 -21.90768,-1.16169 -5.11068,-0.0754 -11.15184,-0.10254 -22.87049,-0.10296 -15.04012,-5.4e-4 -22.60776,0.0547 -29.76004,0.21733 l -0.92334,0.021 v -1.12531 -1.12532 h 0.18273 c 0.10051,0 0.67937,-0.021 1.28637,-0.0467 5.08895,-0.21539 11.07483,-0.40374 16.57159,-0.52145 6.30711,-0.13506 10.25824,-0.16816 17.63032,-0.14773 6.12376,0.017 7.74539,0.0333 11.52205,0.11592 11.25978,0.24635 19.49982,0.86464 25.88516,1.94229 0.78092,0.1318 2.5307,0.45569 2.54964,0.47195 0.005,0.004 0.005,0.33986 0,0.74635 l -0.008,0.73906 z"
       id="path147"
       inkscape:connector-curvature="0"
       transform="matrix(0.26458333,0,0,0.26458333,0,49.999998)" />
    <path
       style="fill:#00d455;fill-opacity:1;stroke-width:0.08928572"
       d="m 580.85335,630.64161 c 2.17786,-2.21992 3.97512,-4.16822 9.42095,-10.21269 15.94106,-17.69341 24.39194,-26.40144 30.87572,-31.81523 5.47843,-4.57435 9.45222,-6.79275 14.16762,-7.90918 1.68499,-0.39894 2.82286,-0.54721 4.64479,-0.60524 8.88046,-0.28284 23.70832,3.45067 85.62307,21.55905 l 5.75892,1.68433 0.0259,0.73063 c 0.0143,0.40185 10e-4,0.73064 -0.029,0.73064 -0.0302,0 -2.07089,-0.58032 -4.53487,-1.28959 -24.76064,-7.12753 -47.40691,-13.21752 -61.22103,-16.46345 -11.28167,-2.65087 -18.32093,-3.95788 -22.78281,-4.23019 -1.90259,-0.11611 -6.0762,0.0134 -7.61898,0.23649 -3.55362,0.51377 -6.04237,1.63274 -9.64286,4.33553 -4.05965,3.04746 -8.82236,7.66452 -23.25639,22.54514 -7.77998,8.02069 -14.00982,14.23232 -18.21682,18.16357 -1.79656,1.6788 -4.87567,4.4125 -5.02501,4.46131 -0.0599,0.0196 0.75492,-0.84493 1.81072,-1.92112 z"
       id="path149"
       inkscape:connector-curvature="0"
       transform="matrix(0.26458333,0,0,0.26458333,0,49.999998)" />
    <path
       style="fill:#00d455;fill-opacity:1;stroke-width:0.08928572"
       d="m 580.32076,631.26563 c 0.2227,-0.23921 0.94627,-0.99743 1.60792,-1.68493 1.54226,-1.6025 3.9199,-4.19832 9.68749,-10.57649 11.50436,-12.72223 18.19425,-19.80407 23.53305,-24.91181 9.3961,-8.98943 14.8958,-12.44987 21.73092,-13.6732 1.52077,-0.27218 5.08545,-0.33552 7.27678,-0.12929 9.56544,0.9002 26.56343,5.36352 80.71429,21.19393 l 6.38393,1.86627 0.0263,0.69293 0.0263,0.69293 -0.24948,-0.0616 c -0.13721,-0.0339 -3.42359,-0.96543 -7.30305,-2.07013 -44.52538,-12.67884 -69.64732,-18.87059 -80.17857,-19.76144 -1.36169,-0.11519 -4.20193,-0.11637 -6.16072,-0.003 -3.31556,0.19264 -5.42869,0.71315 -7.8125,1.92438 -2.58476,1.31334 -5.56062,3.57241 -9.46428,7.18463 -2.11648,1.95846 -10.65679,10.53107 -17.96529,18.03322 -9.77496,10.03398 -16.05947,16.24625 -20.36834,20.13423 -1.70885,1.54194 -2.21577,1.93421 -1.48468,1.14891 z"
       id="path151"
       inkscape:connector-curvature="0"
       transform="matrix(0.26458333,0,0,0.26458333,0,49.999998)" />
    <path
       style="fill:#00d455;fill-opacity:1;stroke-width:0.08928572"
       d="m 633.44264,664.5172 c 0,-0.0267 0.0626,-0.19855 0.13921,-0.3818 0.0952,-0.22796 0.13352,-0.57012 0.12118,-1.08336 l -0.0181,-0.75018 9.23151,-9.82705 c 5.07733,-5.40488 9.302,-9.90909 9.38815,-10.00935 0.15655,-0.18219 0.16189,-0.18118 8.34822,1.57594 11.04303,2.37028 15.10927,3.36459 28.72728,7.0246 10.13996,2.72524 31.06866,8.55481 41.00446,11.42157 l 1.00447,0.28981 v 0.70679 c 0,0.63101 -0.0168,0.70188 -0.15625,0.66108 -0.0859,-0.0251 -2.60715,-0.75369 -5.60268,-1.61902 -2.99554,-0.86532 -6.33036,-1.82954 -7.41072,-2.14271 -17.59848,-5.10134 -35.33445,-10.00531 -44.19642,-12.22024 -9.34206,-2.33492 -14.59297,-3.32397 -18.17652,-3.42371 -2.60698,-0.0726 -3.50437,0.13434 -4.47494,1.03174 -1.00364,0.92797 -17.38793,18.09692 -17.90005,18.75731 -0.0159,0.0205 -0.0289,0.0153 -0.0289,-0.0114 z"
       id="path153"
       inkscape:connector-curvature="0"
       transform="matrix(0.26458333,0,0,0.26458333,0,49.999998)" />
    <path
       style="fill:#00d455;fill-opacity:1;stroke-width:0.06313454"
       d="m 692.66189,810.31034 c -17.62342,-0.23947 -36.10292,-1.50293 -56.66325,-3.87411 -2.48129,-0.28616 -2.50972,-0.29079 -2.40824,-0.39227 0.0435,-0.0435 0.0723,-0.29702 0.0723,-0.63662 v -0.56435 l 0.36303,0.035 c 0.19966,0.0192 2.01083,0.22171 4.02482,0.44992 15.94113,1.80639 31.43541,3.18841 43.21559,3.85463 0.92019,0.052 1.91456,0.10974 2.20971,0.12821 3.66121,0.22918 10.60559,0.49309 15.97304,0.60702 3.80245,0.0807 12.84646,0.042 15.75207,-0.0674 4.14084,-0.15593 7.47237,-0.34377 10.52768,-0.5936 l 1.68885,-0.1381 v 0.20404 c 0,0.25286 0.0455,0.24424 -1.76777,0.33451 -10.61376,0.52839 -23.45574,0.78265 -32.98779,0.65312 z"
       id="path155"
       inkscape:connector-curvature="0"
       transform="matrix(0.26458333,0,0,0.26458333,0,49.999998)" />
    <path
       style="fill:#00d455;fill-opacity:1;stroke-width:0.08928572"
       d="m 694.86807,866.93912 c -20.19765,-0.29745 -42.01134,-1.59216 -60,-3.56117 -1.83823,-0.20122 -8.02872,-0.93248 -10.35714,-1.22347 l -0.89286,-0.11158 -0.0262,-0.64648 c -0.0144,-0.35556 3.6e-4,-0.64648 0.0329,-0.64648 0.0325,0 1.16931,0.13968 2.52623,0.31042 4.99573,0.62856 12.68967,1.48749 17.95821,2.0048 11.78758,1.15741 18.61587,1.57278 32.72321,1.99056 5.08498,0.15058 27.8826,0.15019 33.4375,-8.9e-4 18.83921,-0.51134 31.92855,-1.36784 41.27147,-2.70062 2.72046,-0.38807 4.39255,-0.69776 7.0321,-1.30241 15.8051,-3.62052 31.9944,-10.48782 46.99961,-19.93662 8.4932,-5.34818 16.25577,-11.27505 23.80121,-18.17268 2.09791,-1.91778 6.94379,-6.75982 8.80701,-8.80002 5.88032,-6.43885 10.35805,-12.25671 14.60288,-18.97336 3.77948,-5.98033 7.66456,-13.80815 10.17054,-20.49202 1.55606,-4.15028 3.04547,-9.36687 3.93186,-13.77123 l 0.30098,-1.49553 h 1.08491 1.08491 l -0.3033,1.45089 c -3.58992,17.17326 -12.69266,35.24143 -25.42614,50.46906 -4.22575,5.05346 -9.58332,10.57506 -14.54169,14.9869 -15.17639,13.50359 -33.42033,24.22184 -53.82747,31.62347 -6.6666,2.41795 -15.03203,4.8962 -19.54245,5.78941 -8.8427,1.75114 -22.4979,2.82621 -40.40179,3.18083 -3.77994,0.0749 -16.12245,0.0919 -20.44643,0.0282 z"
       id="path157"
       inkscape:connector-curvature="0"
       transform="matrix(0.26458333,0,0,0.26458333,0,49.999998)" />
    <path
       style="fill:#00d455;fill-opacity:1;stroke-width:0.04464286"
       d="m 621.36247,861.77295 c -3.55029,-0.46752 -3.39547,-0.44385 -3.3708,-0.51523 0.0121,-0.0351 0.0282,-0.33566 0.0357,-0.66793 l 0.0137,-0.60411 1.2366,0.16665 c 0.68013,0.0916 1.86941,0.24881 2.64285,0.34923 0.77344,0.10043 1.46652,0.19316 1.54018,0.20606 l 0.13393,0.0235 v 0.66672 c 0,0.41783 -0.0167,0.66496 -0.0446,0.66202 -0.0245,-0.003 -1.00892,-0.13168 -2.1875,-0.28688 z"
       id="path159"
       inkscape:connector-curvature="0"
       transform="matrix(0.26458333,0,0,0.26458333,0,49.999998)" />
    <path
       style="fill:#00d455;fill-opacity:1;stroke-width:0.06313454"
       d="m 867.21799,759.32822 c 0,-0.0407 0.12794,-0.775 0.28431,-1.63178 1.65187,-9.05066 3.31976,-24.26628 4.04152,-36.86942 0.0189,-0.32988 0.0506,-0.79155 0.0704,-1.02594 l 0.036,-0.42616 h 0.66321 0.66321 l -0.037,0.55243 c -0.0204,0.30383 -0.0526,0.95017 -0.0717,1.43631 -0.43495,11.09157 -1.22142,21.909 -2.11833,29.13659 -0.33368,2.68882 -1.03225,7.20822 -1.32567,8.57641 l -0.0698,0.32556 h -1.06805 c -0.77451,0 -1.06806,-0.0203 -1.06806,-0.074 z"
       id="path161"
       inkscape:connector-curvature="0"
       transform="matrix(0.26458333,0,0,0.26458333,0,49.999998)" />
    <path
       style="fill:#00d455;fill-opacity:1;stroke-width:0.06313454"
       d="m 727.41487,809.33287 0.0256,-0.21899 0.79921,-0.0759 c 8.82691,-0.83807 16.69845,-2.36516 22.95943,-4.45413 6.60983,-2.20537 14.19606,-6.02742 20.67656,-10.41713 8.72645,-5.91106 16.32301,-13.20342 22.0988,-21.21386 l 0.7079,-0.98179 h 0.5007 0.5007 l -0.30068,0.42616 c -8.40695,11.91529 -21.18218,22.55905 -34.9751,29.1397 -9.9187,4.73224 -16.48685,6.57373 -26.94968,7.55576 -1.44863,0.13597 -4.18466,0.3495 -5.3389,0.41666 l -0.73007,0.0425 z"
       id="path163"
       inkscape:connector-curvature="0"
       transform="matrix(0.26458333,0,0,0.26458333,0,49.999998)" />
    <path
       style="fill:#00d455;fill-opacity:1;stroke-width:0.03156727"
       d="m 871.64729,718.95221 c 0.011,-0.23005 0.0485,-0.95097 0.0832,-1.60204 0.37865,-7.09778 0.61026,-14.56763 0.65406,-21.09483 l 0.0201,-2.991 h 0.67137 0.67137 l -0.0139,0.63924 c -0.008,0.35158 -0.0284,1.48445 -0.0461,2.51749 -0.0875,5.11176 -0.30792,12.49428 -0.59814,20.02943 -0.0341,0.88546 -0.0699,1.83011 -0.0796,2.09922 -0.01,0.26911 -0.0252,0.56387 -0.0345,0.65502 l -0.0169,0.16573 h -0.66553 -0.66554 z"
       id="path165"
       inkscape:connector-curvature="0"
       transform="matrix(0.26458333,0,0,0.26458333,0,49.999998)" />
    <path
       style="fill:#00d455;fill-opacity:1;stroke-width:0.03156727"
       d="m 872.38462,690.3207 c -0.0321,-4.81959 -0.11436,-7.17841 -0.41729,-11.97189 -0.33631,-5.32174 -0.6309,-8.65442 -1.01151,-11.44314 -0.0604,-0.44273 -0.13075,-0.93621 -0.15629,-1.09662 -0.0255,-0.16041 -0.0464,-0.29891 -0.0464,-0.30778 0,-0.009 0.42458,-0.0161 0.9435,-0.0161 h 0.94351 l 0.0185,0.10259 c 0.0696,0.38624 0.31557,2.54961 0.44412,3.90645 0.52271,5.51753 0.74963,12.9896 0.65987,21.72886 l -0.021,2.04129 h -0.6687 -0.66869 z"
       id="path167"
       inkscape:connector-curvature="0"
       transform="matrix(0.26458333,0,0,0.26458333,0,49.999998)" />
    <path
       style="fill:#00d455;fill-opacity:1;stroke-width:0.03156727"
       d="m 870.74062,665.39834 c -0.01,-0.0477 -0.0688,-0.39223 -0.13147,-0.76551 -0.40229,-2.39591 -0.99303,-4.7019 -1.678,-6.55021 -2.30016,-6.20671 -6.49963,-10.36474 -14.51505,-14.37178 -3.39899,-1.69921 -7.71488,-3.47466 -13.17368,-5.41932 -0.60158,-0.21431 -1.21452,-0.43292 -1.3621,-0.48581 l -0.26832,-0.0961 2.80122,-0.002 2.80123,-0.002 1.27095,0.41222 c 4.20522,1.36393 7.85943,2.61124 9.28904,3.17067 1.04028,0.40709 2.69752,1.2202 4.07218,1.99799 4.22855,2.39255 7.09335,5.27235 9.12032,9.16809 1.62236,3.11811 2.79618,7.12773 3.53737,12.08321 0.061,0.40801 0.11877,0.788 0.12833,0.84442 l 0.0174,0.1026 h -0.94594 -0.94594 z"
       id="path169"
       inkscape:connector-curvature="0"
       transform="matrix(0.26458333,0,0,0.26458333,0,49.999998)" />
    <path
       style="fill:#00d455;fill-opacity:1;stroke-width:0.03156727"
       d="m 839.02801,637.5131 c -0.81928,-0.29292 -6.39005,-2.1521 -8.06544,-2.69175 -5.03218,-1.62087 -11.25709,-3.55831 -20.09257,-6.25359 -1.74488,-0.53228 -3.24708,-0.99068 -3.33824,-1.01867 l -0.16572,-0.0509 v -0.76976 c 0,-0.71839 0.004,-0.76866 0.0552,-0.75317 4.73157,1.42151 18.8835,5.77375 25.68786,7.89996 5.20491,1.62642 12.00162,3.78185 12.04029,3.81832 0.007,0.007 -1.24994,0.0109 -2.79371,0.009 l -2.80685,-0.003 z"
       id="path171"
       inkscape:connector-curvature="0"
       transform="matrix(0.26458333,0,0,0.26458333,0,49.999998)" />
    <path
       style="fill:#00d455;fill-opacity:1;stroke-width:0.03156727"
       d="m 804.63089,626.66794 c -7.98714,-2.44706 -24.65489,-7.47737 -35.81979,-10.81037 l -2.89514,-0.86427 2.46604,-0.008 2.46605,-0.008 2.60723,0.77645 c 9.88831,2.94476 32.29686,9.6869 33.77991,10.16348 l 0.14206,0.0457 -0.009,0.75772 c -0.008,0.693 -0.0136,0.75741 -0.0631,0.75398 -0.0298,-0.002 -1.23319,-0.36497 -2.67424,-0.80647 z"
       id="path173"
       inkscape:connector-curvature="0"
       transform="matrix(0.26458333,0,0,0.26458333,0,49.999998)" />
    <path
       style="fill:#00d455;fill-opacity:1;stroke-width:0.03156727"
       d="m 763.13572,614.1696 c -5.91551,-1.76281 -17.04249,-5.04148 -21.80482,-6.42501 l -1.99637,-0.57997 -2.6e-4,-0.7531 c -2.1e-4,-0.58958 0.008,-0.74981 0.0392,-0.73797 0.0217,0.008 1.45288,0.43027 3.1804,0.93767 8.21446,2.41272 28.05001,8.27781 28.23692,8.34925 0.0174,0.007 -1.09065,0.0124 -2.46224,0.0127 l -2.49382,6.8e-4 -2.699,-0.80429 z"
       id="path175"
       inkscape:connector-curvature="0"
       transform="matrix(0.26458333,0,0,0.26458333,0,49.999998)" />
    <path
       style="fill:#00d455;fill-opacity:1;stroke-width:0.03156727"
       d="m 737.61326,606.66318 c -0.90283,-0.26449 -2.69442,-0.78523 -3.98132,-1.1572 -1.79637,-0.51922 -2.32894,-0.68425 -2.293,-0.71054 0.0396,-0.029 0.0451,-0.14462 0.0353,-0.75023 -0.006,-0.39381 -0.007,-0.71601 -0.002,-0.71601 0.0115,0 7.32912,2.14844 7.70084,2.26096 l 0.26043,0.0788 v 0.73992 c 0,0.57216 -0.009,0.73938 -0.0395,0.73753 -0.0217,-10e-4 -0.77813,-0.21878 -1.68095,-0.48327 z"
       id="path177"
       inkscape:connector-curvature="0"
       transform="matrix(0.26458333,0,0,0.26458333,0,49.999998)" />
    <path
       style="fill:#00d455;fill-opacity:1;stroke-width:0.04464286"
       d="m 794.75819,771.83532 c 0.0454,-0.0682 0.37241,-0.55532 0.72674,-1.08259 2.13174,-3.17221 4.59306,-7.50919 5.9543,-10.4918 3.05772,-6.69975 4.18885,-13.11831 4.94036,-28.03383 0.18949,-3.76076 0.38103,-8.68355 0.65312,-16.78571 0.0664,-1.97657 0.12482,-3.59928 0.12988,-3.60602 0.005,-0.007 0.33853,-0.007 0.74106,0 l 0.73187,0.0123 -0.12013,2.14285 c -0.42488,7.57931 -0.65281,10.92809 -1.04372,15.33482 -1.28847,14.52485 -3.27571,25.48655 -5.74217,31.67411 -1.20228,3.01613 -3.1697,6.66224 -5.42604,10.05581 l -0.60107,0.90401 h -0.51335 -0.51336 z"
       id="path179"
       inkscape:connector-curvature="0"
       transform="matrix(0.26458333,0,0,0.26458333,0,49.999998)" />
    <path
       style="fill:#00d455;fill-opacity:1;stroke-width:0.04464286"
       d="m 807.17023,711.50165 c 0.009,-0.17801 0.16663,-4.77343 0.34949,-10.21205 0.18286,-5.43862 0.34493,-10.1144 0.36015,-10.39062 l 0.0277,-0.50224 h 0.98166 0.98167 l -0.0241,0.16741 c -0.0133,0.0921 -0.29078,4.91351 -0.61668,10.71429 l -0.59254,10.54687 h -0.74215 -0.74216 z"
       id="path181"
       inkscape:connector-curvature="0"
       transform="matrix(0.26458333,0,0,0.26458333,0,49.999998)" />
    <path
       style="fill:#00d455;fill-opacity:1;stroke-width:0.04464286"
       d="m 807.89941,690.22933 c 4.4e-4,-0.0921 0.0302,-0.96959 0.0663,-1.95003 0.0361,-0.98044 0.0609,-1.78554 0.0551,-1.78911 -0.006,-0.004 -16.3217,-4.74603 -36.25757,-10.5388 l -36.24703,-10.53233 2.5343,-0.0115 2.5343,-0.0115 4.56095,1.32083 c 12.43548,3.60124 25.63679,7.49206 36.8154,10.85057 10.84513,3.25833 28.06119,8.46583 28.09553,8.49832 0.0206,0.0195 -0.0146,0.94673 -0.0783,2.06048 -0.0637,1.11375 -0.11573,2.08025 -0.11562,2.14778 v 0.12276 h -0.98214 -0.98214 l 6.7e-4,-0.16741 z"
       id="path183"
       inkscape:connector-curvature="0"
       transform="matrix(0.26458333,0,0,0.26458333,0,49.999998)" />
    <path
       style="fill:#00d455;fill-opacity:1;stroke-width:0.04464286"
       d="m 733.56838,664.85705 c -0.99442,-0.29216 -1.91711,-0.56306 -2.05042,-0.60201 -0.14917,-0.0436 -0.22127,-0.0839 -0.18748,-0.10474 0.0371,-0.0229 0.0651,-0.25186 0.0861,-0.70562 l 0.0312,-0.67167 4.46429,1.28189 c 2.45535,0.70504 4.49442,1.29379 4.53125,1.30834 0.0368,0.0145 -1.08817,0.0261 -2.5,0.0257 l -2.56697,-7.2e-4 z"
       id="path185"
       inkscape:connector-curvature="0"
       transform="matrix(0.26458333,0,0,0.26458333,0,49.999998)" />
    <path
       style="fill:#00d455;fill-opacity:1;stroke-width:0.00390625"
       d=""
       id="path187"
       inkscape:connector-curvature="0"
       transform="matrix(0.26458333,0,0,0.26458333,0,49.999998)" />
  </g>
  <g
     inkscape:groupmode="layer"
     id="layer2"
     inkscape:label="Layer 2"
     transform="translate(0,-49.999998)">
    <g
       inkscape:groupmode="layer"
       id="layer3"
       inkscape:label="Layer 3" />
    <g
       inkscape:groupmode="layer"
       id="layer5"
       inkscape:label="Layer 4" />
  </g>
  <g
     inkscape:groupmode="layer"
     id="layer6"
     inkscape:label="Layer 5"
     transform="translate(0,-49.999998)" />
  <g
     inkscape:label="Layer 1"
     inkscape:groupmode="layer"
     id="layer1"
     transform="translate(0,-46.999998)" />
</svg>
