<?xml version="1.0" encoding="UTF-8" standalone="no"?>
<!-- Created with Inkscape (http://www.inkscape.org/) -->

<svg
   xmlns:dc="http://purl.org/dc/elements/1.1/"
   xmlns:cc="http://creativecommons.org/ns#"
   xmlns:rdf="http://www.w3.org/1999/02/22-rdf-syntax-ns#"
   xmlns:svg="http://www.w3.org/2000/svg"
   xmlns="http://www.w3.org/2000/svg"
   xmlns:xlink="http://www.w3.org/1999/xlink"
   xmlns:sodipodi="http://sodipodi.sourceforge.net/DTD/sodipodi-0.dtd"
   xmlns:inkscape="http://www.inkscape.org/namespaces/inkscape"
   width="210mm"
   height="297mm"
   viewBox="0 0 210 297"
   version="1.1"
   id="svg71"
   inkscape:version="0.92.4 (5da689c313, 2019-01-14)"
   sodipodi:docname="drawing.svg">
  <defs
     id="defs65">
    <clipPath
       clipPathUnits="userSpaceOnUse"
       id="clipPath3771">
      <use
         x="0"
         y="0"
         xlink:href="#g3767"
         id="use3773"
         width="100%"
         height="100%" />
    </clipPath>
  </defs>
  <sodipodi:namedview
     id="base"
     pagecolor="#ffffff"
     bordercolor="#666666"
     borderopacity="1.0"
     inkscape:pageopacity="0.0"
     inkscape:pageshadow="2"
     inkscape:zoom="0.35"
     inkscape:cx="400"
     inkscape:cy="560"
     inkscape:document-units="mm"
     inkscape:current-layer="layer1"
     showgrid="false"
     inkscape:window-width="1920"
     inkscape:window-height="1017"
     inkscape:window-x="-8"
     inkscape:window-y="-8"
     inkscape:window-maximized="1" />
  <metadata
     id="metadata68">
    <rdf:RDF>
      <cc:Work
         rdf:about="">
        <dc:format>image/svg+xml</dc:format>
        <dc:type
           rdf:resource="http://purl.org/dc/dcmitype/StillImage" />
        <dc:title></dc:title>
      </cc:Work>
    </rdf:RDF>
  </metadata>
  <g
     inkscape:label="Layer 1"
     inkscape:groupmode="layer"
     id="layer1">
    <g
       id="g3769"
       clip-path="url(#clipPath3771)"
       transform="matrix(2.1465482,0,0,1.9661198,-130.09492,-5.908086)">
      <g
         inkscape:label="Clip"
         id="g3767">
        <path
           inkscape:connector-curvature="0"
           id="path38"
           d="m 124.47093,146.12429 c -6.5419,-0.53671 -16.2876,-2.67485 -23.27007,-5.10529 -32.693852,-11.37998 -56.100502,-37.72207 -62.641052,-70.496889 -0.90252,-4.52255 -1.18408,-7.85577 -1.19911,-14.19568 -0.0183,-7.72257 0.0691,-8.4669 1.28652,-10.95805 0.71838,-1.46998 2.59182,-4.02711 4.1632,-5.68251 4.95486,-5.21979 11.43811,-7.19949 22.19725,-6.77806 4.30865,0.16876 5.39468,0.38695 6.24332,1.25431 0.92604,0.94648 5.47391,13.24088 9.42974,25.49174 l 1.50595,4.66378 -1.30852,1.41593 c -0.71968,0.77877 -2.93218,2.7194 -4.91665,4.31252 -1.98448,1.59312 -3.60814,3.25515 -3.60814,3.6934 0,2.25511 6.64341,12.94809 11.68074,18.80086 3.76363,4.37289 10.4831,10.181749 15.58075,13.469259 5.515842,3.55721 12.013072,6.60475 13.246462,6.21329 0.59314,-0.18825 2.45166,-1.99083 4.13006,-4.00574 4.018,-4.8236 4.84277,-5.24797 8.42855,-4.33676 6.69786,1.70206 27.25481,8.71315 28.13849,9.59683 1.38687,1.38687 1.72384,4.75645 1.1844,11.84332 -0.65898,8.65714 -2.64968,12.80692 -8.04279,16.76583 -5.23359,3.84181 -11.26508,4.93742 -22.2291,4.03791 z m 14.43255,-9.02893 c 1.17599,-0.54564 2.90773,-1.8032 3.84832,-2.79459 2.61158,-2.75264 3.36796,-5.12021 3.36796,-10.54225 v -4.76502 l -4.67722,-1.48348 c -9.46648,-3.00252 -16.41187,-4.93055 -16.97833,-4.71318 -0.31993,0.12277 -2.11675,2.02639 -3.99293,4.23026 -3.57524,4.19966 -4.73278,4.84065 -7.83301,4.33756 -2.88132,-0.46757 -13.711722,-5.87767 -19.698762,-9.84009 -6.76095,-4.47462 -16.40679,-14.026959 -20.98539,-20.781969 -4.2425,-6.25916 -9.22245,-16.36445 -9.22245,-18.71414 0,-1.5818 0.53587,-2.23534 4.82162,-5.8804 3.31541,-2.81978 4.73637,-4.36819 4.54872,-4.95671 -0.1501,-0.47073 -1.67862,-5.06537 -3.39671,-10.21031 l -3.12381,-9.35443 -4.63141,-0.15444 c -5.93335,-0.19785 -8.44231,0.50387 -11.33496,3.17022 -3.52415,3.24844 -4.20852,5.59634 -3.83829,13.16811 0.59497,12.16822 3.42977,22.47863 9.31537,33.88071 11.65056,22.570489 35.39515,40.023459 60.918312,44.776729 7.26552,1.35309 8.26649,1.45527 15.14215,1.54568 4.45536,0.0586 6.05354,-0.13076 7.75082,-0.91826 z"
           style="fill:#00d455;fill-opacity:1;stroke-width:0.53453904" />
        <path
           inkscape:connector-curvature="0"
           id="path40"
           d="m 111.04096,81.725521 c -1.93854,-0.81509 -2.30084,-1.86994 -2.38965,-6.95749 -0.0359,-2.05798 -0.21961,-5.17524 -0.4082,-6.92725 -0.34107,-3.16862 -0.35355,-3.18769 -2.35571,-3.60152 -4.45676,-0.92116 -9.454132,-4.90895 -10.401652,-8.30026 -0.22796,-0.8159 -0.41447,-8.82001 -0.41447,-17.7869 v -16.30344 l 1.48253,-2.52201 c 1.83484,-3.12136 5.295112,-5.56592 9.004652,-6.36147 1.9662,-0.42168 10.27996,-0.53228 27.43744,-0.36502 23.78043,0.23183 24.69079,0.27842 26.80522,1.37188 2.53026,1.3085 5.37185,4.35088 6.43073,6.88513 0.56783,1.35903 0.73493,5.38517 0.73493,17.70735 v 15.94838 l -1.36247,2.73414 c -1.36035,2.72987 -3.26505,4.55275 -6.49543,6.21644 -1.36988,0.7055 -3.39336,0.88567 -10.15624,0.90431 -4.64505,0.0128 -9.41677,0.21171 -10.60384,0.44201 -1.57291,0.30517 -4.11009,1.93563 -9.35443,6.0114 -14.74519,11.45963 -15.51735,11.92861 -17.95341,10.90432 z m 14.70001,-18.93628 c 5.34043,-4.03788 8.27544,-5.90798 9.62171,-6.13064 1.06545,-0.17622 5.68984,-0.32305 10.27641,-0.32629 8.83222,-0.006 11.34773,-0.47583 12.32441,-2.30075 0.4029,-0.75284 0.56887,-5.88355 0.51255,-15.84486 l -0.0833,-14.73151 -1.33795,-1.3378 -1.33796,-1.33781 h -23.90832 c -13.14958,0 -24.58566,0.18897 -25.41353,0.41993 -2.69818,0.75276 -3.03988,2.62004 -3.02562,16.53452 0.007,6.84486 0.22986,13.38108 0.49521,14.52494 0.73775,3.1802 1.62302,3.74363 6.43793,4.09743 5.84758,0.42968 6.41758,1.00022 6.41758,6.42363 0,4.0627 0.30456,5.85149 0.99264,5.83013 0.18904,-0.006 3.80174,-2.62528 8.02822,-5.82092 z"
           style="fill:#00d455;fill-opacity:1;stroke-width:0.53453904" />
        <path
           inkscape:connector-curvature="0"
           id="path42"
           d="m 112.4826,42.089061 c -1.32165,-1.6802 -1.37007,-2.41394 -0.29635,-4.4903 0.97513,-1.88569 2.90537,-2.48077 5.09921,-1.57205 2.78981,1.15557 3.42357,3.66016 1.53401,6.06235 -0.85454,1.08637 -1.57905,1.40843 -3.16844,1.40843 -1.58938,0 -2.31389,-0.32206 -3.16843,-1.40843 z"
           style="fill:#00d455;fill-opacity:1;stroke-width:0.53453904" />
        <path
           inkscape:connector-curvature="0"
           id="path44"
           d="m 128.03861,42.260331 c -1.54175,-1.64113 -1.48159,-3.83748 0.1498,-5.46887 1.51583,-1.51584 3.27598,-1.67591 5.01722,-0.4563 1.82808,1.28044 2.3758,3.17886 1.4395,4.98944 -1.31044,2.53413 -4.6593,3.00845 -6.60652,0.93573 z"
           style="fill:#00d455;fill-opacity:1;stroke-width:0.53453904" />
        <path
           inkscape:connector-curvature="0"
           id="path46"
           d="m 143.47421,43.092421 c -1.74135,-1.41005 -1.6507,-4.2513 0.18605,-5.83121 1.68923,-1.45301 2.49104,-1.53483 4.55942,-0.46522 2.45471,1.26937 2.87045,3.53681 1.06851,5.82761 -1.32773,1.68793 -4.0385,1.90652 -5.81398,0.46882 z"
           style="fill:#00d455;fill-opacity:1;stroke-width:0.53453904" />
      </g>
    </g>
  </g>
</svg>
