<?xml version="1.0" encoding="UTF-8" standalone="no"?>
<!-- Created with Inkscape (http://www.inkscape.org/) -->

<svg
   xmlns:dc="http://purl.org/dc/elements/1.1/"
   xmlns:cc="http://creativecommons.org/ns#"
   xmlns:rdf="http://www.w3.org/1999/02/22-rdf-syntax-ns#"
   xmlns:svg="http://www.w3.org/2000/svg"
   xmlns="http://www.w3.org/2000/svg"
   xmlns:xlink="http://www.w3.org/1999/xlink"
   xmlns:sodipodi="http://sodipodi.sourceforge.net/DTD/sodipodi-0.dtd"
   xmlns:inkscape="http://www.inkscape.org/namespaces/inkscape"
   width="250mm"
   height="250mm"
   viewBox="0 0 250 250"
   version="1.1"
   id="svg28"
   inkscape:version="0.92.4 (5da689c313, 2019-01-14)"
   sodipodi:docname="homelogo.svg">
  <defs
     id="defs22">
    <linearGradient
       inkscape:collect="always"
       id="linearGradient52">
      <stop
         style="stop-color:#2ca02c;stop-opacity:1"
         offset="0"
         id="stop48" />
      <stop
         id="stop56"
         offset="0.44513282"
         style="stop-color:#40b463;stop-opacity:1" />
      <stop
         style="stop-color:#5fd3bc;stop-opacity:1"
         offset="1"
         id="stop50" />
    </linearGradient>
    <inkscape:path-effect
       effect="spiro"
       id="path-effect36"
       is_visible="true" />
    <inkscape:path-effect
       effect="spiro"
       id="path-effect32"
       is_visible="true" />
    <linearGradient
       inkscape:collect="always"
       xlink:href="#linearGradient52"
       id="linearGradient879"
       x1="309.10516"
       y1="430.05679"
       x2="853.80469"
       y2="841.48535"
       gradientUnits="userSpaceOnUse"
       gradientTransform="matrix(0.29699952,0,0,0.28200213,-9.1901269,-11.686157)" />
    <linearGradient
       inkscape:collect="always"
       xlink:href="#linearGradient52"
       id="linearGradient4866"
       gradientUnits="userSpaceOnUse"
       gradientTransform="matrix(0.25232842,0,0,0.24251952,-12.658809,41.114568)"
       x1="309.10516"
       y1="430.05679"
       x2="853.80469"
       y2="841.48535" />
  </defs>
  <sodipodi:namedview
     id="base"
     pagecolor="#ffffff"
     bordercolor="#666666"
     borderopacity="1.0"
     inkscape:pageopacity="0.0"
     inkscape:pageshadow="2"
     inkscape:zoom="0.98994949"
     inkscape:cx="529.97444"
     inkscape:cy="495.44944"
     inkscape:document-units="mm"
     inkscape:current-layer="layer2"
     showgrid="false"
     inkscape:window-width="1920"
     inkscape:window-height="1017"
     inkscape:window-x="-8"
     inkscape:window-y="-8"
     inkscape:window-maximized="1" />
  <metadata
     id="metadata25">
    <rdf:RDF>
      <cc:Work
         rdf:about="">
        <dc:format>image/svg+xml</dc:format>
        <dc:type
           rdf:resource="http://purl.org/dc/dcmitype/StillImage" />
        <dc:title />
      </cc:Work>
    </rdf:RDF>
  </metadata>
  <g
     inkscape:groupmode="layer"
     id="layer7"
     inkscape:label="Layer 6"
     transform="translate(0,-49.999998)">
    <path
       style="fill:url(#linearGradient4866);fill-opacity:1;stroke-width:0.35339341"
       d="m 46.398029,293.17488 c -5.307499,-1.14302 -10.51388,-4.23407 -14.070905,-8.35397 -2.567789,-2.97414 -5.297418,-8.2906 -6.549594,-12.75654 -0.903738,-3.22324 -0.970085,-3.94727 -0.983437,-10.73201 -0.01621,-8.25437 0.458169,-11.16461 3.030668,-18.59188 2.473757,-7.14222 4.662448,-11.12598 13.483388,-24.54195 8.931885,-13.5847 12.473793,-22.82713 12.473793,-32.54976 0,-8.85904 -3.084389,-14.66459 -10.20397,-19.20636 -3.57338,-2.27955 -7.178309,-3.73955 -15.028869,-6.08675 -7.757614,-2.31943 -9.261551,-2.86767 -13.150696,-4.79403 -5.9359473,-2.94018 -10.3571701,-7.98814 -11.9108045,-13.59922 -0.693232,-2.50369 -0.6794221,-8.17143 0.026321,-10.789 1.6775644,-6.22225 6.0168,-11.96905 11.8338895,-15.67256 8.098021,-5.15567 15.542694,-6.17684 31.945713,-4.3819 12.323739,1.34857 19.99822,0.63502 31.168976,-2.898 12.76783,-4.03814 21.777368,-8.670046 47.699168,-24.522695 15.12763,-9.251402 21.15394,-12.678153 29.09237,-16.542855 19.81751,-9.647847 35.72596,-12.459868 49.94759,-8.828869 13.38259,3.416778 23.13453,12.927761 26.8175,26.15488 2.24006,8.044965 2.05207,16.816149 -0.57514,26.835309 -1.11126,4.23788 -3.30904,10.56414 -6.98362,20.10209 -7.52115,19.52241 -9.56071,27.91975 -9.07894,37.3801 0.50188,9.85522 3.8328,17.33232 13.28643,29.82482 8.28294,10.94552 10.90133,15.14193 13.07857,20.96064 3.65223,9.7606 3.2708,20.18801 -1.06112,29.01001 -5.19404,10.57769 -14.73586,18.38028 -26.20387,21.42757 -4.51861,1.20071 -11.9526,1.5134 -16.77262,0.70553 -7.35426,-1.23264 -13.03666,-3.46746 -26.24086,-10.32028 -12.96078,-6.72646 -17.7865,-8.73833 -24.80012,-10.33932 -8.1716,-1.8653 -18.31712,-1.31152 -25.49153,1.39143 -8.25642,3.11059 -14.85446,7.69445 -29.184608,20.2754 -4.064286,3.56821 -9.011734,7.77354 -10.994316,9.34522 -7.395524,5.86271 -14.75573,9.98486 -20.726972,11.60829 -3.6681,0.99725 -10.404091,1.23357 -13.872357,0.48666 z"
       id="path38"
       inkscape:connector-curvature="0" />
    <ellipse
       style="fill:#ffffff;fill-opacity:1;stroke-width:0.26458332"
       id="path4870-9"
       cx="-138.71725"
       cy="168.84225"
       rx="30.805059"
       ry="28.726191" />
    <ellipse
       style="fill:#ffffff;fill-opacity:1;stroke-width:0.26458332"
       id="path4900"
       cx="-211.66666"
       cy="132.17857"
       rx="26.836309"
       ry="27.59226" />
  </g>
  <g
     inkscape:groupmode="layer"
     id="layer2"
     inkscape:label="Layer 2"
     transform="translate(0,-49.999998)">
    <path
       style="fill:#f2f2f2;fill-opacity:1;stroke-width:0.20401788"
       d="m 123.79991,230.36796 c -6.44007,-1.35941 -10.58022,-2.7816 -15.66206,-5.38009 -6.07998,-3.1089 -10.931724,-6.76346 -15.654106,-11.79138 -7.444625,-7.9263 -12.138199,-17.20274 -14.459986,-28.57881 -0.563704,-2.76208 -0.621375,-3.43401 -0.726155,-8.46074 -0.137931,-6.61747 0.09619,-9.7186 1.047522,-13.87628 1.913017,-8.36061 5.279315,-15.70776 10.152817,-22.15923 1.762096,-2.33265 8.5881,-9.29128 10.721406,-10.92977 7.665462,-5.88739 16.571392,-9.70988 26.196582,-11.24376 2.746,-0.4376 9.85255,-0.62147 13.23123,-0.34233 11.0461,0.91261 21.51383,5.09818 30.50252,12.19656 2.39132,1.88845 6.40147,5.85936 8.52453,8.4412 2.98454,3.62943 6.32318,9.13495 8.23678,13.58263 1.87745,4.36367 3.6872,10.69641 4.06254,14.2157 0.12454,1.16776 0.18205,5.05759 0.139,9.40192 -0.0715,7.21789 -0.088,7.47665 -0.63644,9.97767 -1.1487,5.23862 -2.6327,9.48198 -4.99744,14.28968 -7.14385,14.52405 -20.50952,25.45744 -36.19094,29.60494 -5.32789,1.40915 -5.91426,1.47389 -14.18561,1.5659 l -7.47414,0.0832 z"
       id="path1148"
       inkscape:connector-curvature="0" />
    <g
       inkscape:groupmode="layer"
       id="layer3"
       inkscape:label="Layer 3" />
    <g
       inkscape:groupmode="layer"
       id="layer5"
       inkscape:label="Layer 4" />
    <path
       style="fill:#165016;fill-opacity:1;stroke-width:1.01015258"
       d="m 501.54586,678.47733 c -5.83355,-5.83356 -6.38935,-9.33867 -2.25911,-14.24717 2.41336,-2.86811 2.50884,-3.29924 1.0803,-4.87775 -0.86187,-0.95237 -2.97003,-4.85855 -4.68478,-8.68044 -1.89684,-4.22768 -4.69564,-8.39119 -7.14708,-10.63203 l -4.02933,-3.68317 1.89459,-3.71612 c 3.89937,-7.6484 -0.22257,-12.89648 -10.12913,-12.89648 -4.68252,0 -7.29516,-0.68142 -12.23814,-3.1919 -6.04499,-3.07018 -6.80467,-3.19955 -19.9217,-3.39261 -10.48346,-0.1543 -15.30223,-0.69391 -20.83771,-2.33342 -12.7143,-3.76572 -21.6129,-8.45443 -27.35317,-14.41248 -17.11557,-17.76492 -24.2457,-33.10881 -20.80255,-44.76665 0.8348,-2.82644 1.74821,-9.22146 2.0298,-14.21114 l 0.51199,-9.07214 8.99915,-10.79649 c 8.53806,-10.24331 11.77508,-12.81788 19.28731,-15.34026 0.95471,-0.32056 2.40827,-2.19221 3.23014,-4.1592 0.82186,-1.96699 4.70006,-6.96331 8.61821,-11.10292 3.91816,-4.13962 7.12393,-8.21154 7.12393,-9.04874 0,-0.93399 -1.33912,-1.77338 -3.46556,-2.1723 -1.90606,-0.35759 -3.68755,-1.22863 -3.95886,-1.93566 -1.26924,-3.30758 2.85023,-22.24748 7.53185,-34.62885 1.0451,-2.76394 5.19912,-3.03722 10.77214,-0.70867 2.05899,0.86031 5.50998,1.96106 7.66887,2.44614 3.42454,0.76944 4.22618,0.58101 6.28438,-1.47719 4.62107,-4.62107 4.32354,-7.14476 -2.1543,-18.2729 -2.87118,-4.93234 -1.55732,-6.48358 5.49143,-6.48358 6.37672,0 9.20569,-0.65407 9.20569,-2.12838 0,-0.49614 -4.09112,-0.90208 -9.09137,-0.90208 -7.04864,0 -9.09137,-0.31266 -9.09137,-1.39155 0,-0.76534 0.68185,-1.95742 1.51522,-2.64906 0.83338,-0.69164 1.51523,-2.0485 1.51523,-3.01525 0,-0.96674 1.36556,-3.47604 3.03457,-5.57622 2.41707,-3.04148 2.7922,-4.11056 1.8435,-5.25368 -0.99726,-1.20162 -1.59009,-0.92531 -3.64312,1.69797 -2.4361,3.11276 -11.69823,9.0891 -14.11439,9.10725 -1.51181,0.0113 -1.68135,-3.20842 -0.24461,-4.64516 0.55995,-0.55995 1.59791,-3.02074 2.30658,-5.46842 0.95056,-3.28314 2.18099,-4.97157 4.69148,-6.43777 3.24136,-1.89307 3.54505,-1.90593 6.39388,-0.27093 2.95989,1.69875 2.9852,1.69279 2.44182,-0.57484 -0.30199,-1.26026 0.0245,-3.65509 0.72557,-5.32184 1.06973,-2.54329 1.03451,-3.20817 -0.21912,-4.13598 -1.52405,-1.12794 -1.18925,-4.44724 0.74983,-7.4341 0.97411,-1.50047 1.26337,-1.43232 8.08833,1.90567 2.79143,1.36524 3.63166,3.8681 2.39681,7.13959 -1.04203,2.76068 -0.74903,3.96683 2.80718,11.55557 2.18386,4.66024 4.25121,9.87596 4.59412,11.59049 0.34291,1.71455 0.80904,3.11734 1.03586,3.11734 1.0152,0 10.19227,-5.02593 12.31364,-6.74371 1.91242,-1.54859 2.3832,-2.971 2.51574,-7.60093 0.19374,-6.76785 3.19853,-10.90917 7.91528,-10.90917 3.31615,0 3.64529,1.60132 1.27234,6.19009 -1.53898,2.97609 -1.52118,3.05029 0.65445,2.72776 3.68828,-0.54678 4.63606,-3.19064 2.91577,-8.1336 -1.66983,-4.79797 -3.53032,-5.31206 -9.81324,-2.71155 -2.86838,1.18722 -3.48738,1.14931 -4.93925,-0.30256 -2.20403,-2.20402 -2.99778,-11.03183 -1.34969,-15.01067 0.72045,-1.73933 5.06744,-6.27428 9.81616,-10.2406 8.82443,-7.37053 12.36878,-11.84687 12.37528,-15.62935 0.007,-4.06392 12.56626,-12.44791 18.64708,-12.44791 3.91041,0 18.06982,4.80036 21.94233,7.43895 6.1367,4.18133 6.16966,7.65638 0.073,7.69787 -3.01478,0.0205 -2.92407,2.48653 0.20662,5.61722 2.83627,2.83627 6.17008,3.39724 5.20236,0.87539 -0.33854,-0.88224 0.0939,-4.04453 0.96104,-7.02731 1.16131,-3.99478 1.29497,-5.94941 0.50747,-7.42089 -1.79557,-3.35504 -1.27663,-4.299 2.17821,-3.96223 2.78613,0.27158 3.34567,0.80134 3.93974,3.73011 0.62141,3.06358 2.24433,5.11432 4.08136,5.15725 0.36397,0.009 0.41448,-2.71194 0.1122,-6.04544 l -0.54958,-6.06092 h 3.6403 c 2.65626,0 3.94508,-0.5695 4.76783,-2.10682 0.62014,-1.15875 0.97706,-2.22638 0.79315,-2.37252 -0.18391,-0.14613 -4.32936,-0.73444 -9.21212,-1.30736 -10.45949,-1.22726 -11.91302,-2.24524 -14.373,-10.06616 -2.04301,-6.49526 -1.24002,-10.72878 2.12718,-11.21497 2.26351,-0.32683 4.45604,3.21219 4.45604,7.19262 0,5.54036 6.3799,9.77369 14.72959,9.77369 h 4.69295 l -5.16559,-4.84971 c -2.84106,-2.66733 -5.16558,-5.38427 -5.16558,-6.03763 0,-0.65335 1.25007,-1.96996 2.77792,-2.92578 1.52786,-0.95582 2.95808,-1.8662 3.17829,-2.02306 0.67398,-0.48011 -4.91861,-8.42285 -9.20455,-13.07255 -5.15815,-5.59592 -4.64952,-7.45677 2.03813,-7.45677 5.6738,0 6.83824,-0.70935 4.84005,-2.94848 -0.78393,-0.87846 -1.58042,-2.73362 -1.76996,-4.12258 -0.32485,-2.38027 -0.6639,-2.51179 -5.90049,-2.28883 -7.6265,0.32472 -11.45271,-0.42962 -14.55436,-2.86937 -3.64211,-2.86489 -2.36905,-4.11204 2.45874,-2.4087 5.74401,2.0266 4.95575,0.29347 -1.2889,-2.8339 -6.60221,-3.30644 -5.09149,-3.3581 8.33376,-0.28494 29.89434,6.84307 59.30426,20.86733 84.34774,40.22162 8.79722,6.79874 30.74852,29.21051 37.85529,38.64941 8.89522,11.81422 17.21383,25.55349 23.85275,39.39595 9.17928,19.13923 17.19843,46.38509 18.13612,61.61931 l 0.49741,8.08122 -1.61777,-5.05077 c -0.88977,-2.77791 -2.03394,-5.4826 -2.5426,-6.0104 -0.56043,-0.58152 -0.92484,11.48515 -0.92484,30.62352 0,19.83931 -0.38883,32.30971 -1.04569,33.53706 -2.84604,5.31787 -6.7063,0.27267 -10.65308,-13.92309 -1.35901,-4.88808 -2.21471,-6.3235 -4.04325,-6.78243 -1.27568,-0.32018 -4.58101,-1.98801 -7.34517,-3.70631 l -5.02574,-3.12417 -3.68652,4.08054 c -3.79401,4.19952 -12.53919,9.24692 -16.02132,9.24692 -1.43744,0 -0.70392,0.96462 2.72372,3.58181 4.42559,3.37919 4.69095,3.85452 4.69095,8.40295 0,9.1567 -4.7455,20.79444 -15.7018,38.50659 -5.92213,9.57385 -19.72927,23.73339 -24.24879,24.86772 -3.60618,0.90509 -6.50489,-2.11893 -7.23273,-7.54538 -0.50051,-3.73155 -1.8903,-5.53489 -12.3757,-16.05814 -9.22952,-9.26284 -12.22358,-12.95874 -13.69504,-16.90529 -2.89405,-7.76202 -4.4481,-9.74759 -7.35433,-9.39647 -5.35852,0.64737 -5.00507,2.9624 1.99319,13.055 3.61291,5.2104 8.1195,12.41006 10.01465,15.99923 4.67785,8.85932 12.09682,16.20265 20.795,20.58297 4.52375,2.27813 7.33426,4.35268 7.6781,5.66751 0.2983,1.14071 1.21435,2.07401 2.03567,2.07401 0.82131,0 5.75048,-3.85787 10.95371,-8.57305 5.20322,-4.71517 10.2559,-8.57901 11.22817,-8.5863 2.39633,-0.018 2.29689,3.50986 -0.32086,11.38284 -2.84956,8.57013 -8.12081,17.22359 -23.07587,37.88211 -21.10714,29.1568 -19.28222,25.91147 -19.28222,34.29033 0,7.02769 -0.15672,7.51286 -3.69043,11.42425 -2.02973,2.24667 -7.47977,6.19489 -12.1112,8.77381 -4.63144,2.57892 -10.56158,6.45801 -13.17812,8.62018 -7.8719,6.50496 -12.29729,8.54371 -26.83205,12.36136 -13.94154,3.66182 -28.64395,5.51113 -44.08507,5.54512 l -7.46791,0.0165 -4.90646,-4.90645 z m 87.21469,-49.3257 c 3.25958,-3.12287 3.66493,-5.36685 0.96946,-5.36685 -2.17102,0 -4.67336,2.56749 -5.661,5.80838 -0.95807,3.14389 1.15694,2.94484 4.69154,-0.44153 z M 529.90708,504.23185 c 1.58323,-3.52873 3.6459,-6.71031 4.5837,-7.07017 2.2624,-0.86817 6.50571,0.2505 9.6258,2.53764 1.79587,1.31643 5.18577,2.03887 11.73495,2.50091 9.07148,0.63996 9.3214,0.59588 16.66752,-2.94038 4.10187,-1.97455 8.63841,-4.04243 10.08119,-4.59529 2.3661,-0.90665 2.68721,-1.68261 3.27581,-7.91585 0.35892,-3.80087 0.6558,-9.31314 0.65975,-12.2495 0.007,-5.13135 -0.0763,-5.2942 -2.13942,-4.19001 -2.90085,1.55248 -15.57537,5.85267 -20.64793,7.00538 -2.25869,0.51328 -5.40651,0.58562 -6.99514,0.16075 -2.47378,-0.66159 -3.22702,-1.77626 -5.24721,-7.76512 -3.37495,-10.00499 -5.28664,-11.2556 -10.80035,-7.06549 -1.80731,1.37346 -1.70018,1.66257 2.29951,6.20647 4.65054,5.28328 4.81434,6.94625 0.68423,6.94625 -2.18878,0 -3.06955,0.71673 -4.21294,3.42836 -1.40641,3.33542 -1.49977,3.37937 -3.44297,1.62079 -1.09855,-0.99418 -4.59933,-6.17349 -7.77951,-11.50959 -4.24774,-7.12741 -8.53359,-12.44963 -16.15061,-20.05607 -5.70266,-5.69473 -10.60583,-10.35406 -10.89595,-10.35406 -0.29013,0 -0.52749,0.96912 -0.52749,2.15361 0,3.6525 3.68621,8.37862 11.60298,14.87631 7.66993,6.29508 9.4015,9.23404 5.4405,9.23404 -1.95288,0 -2.08846,0.38113 -1.48284,4.1685 0.69183,4.32646 -1.19615,8.96349 -3.64953,8.96349 -0.64586,0 -2.19688,0.96066 -3.4467,2.13481 -2.24923,2.11304 -2.31171,2.11562 -6.12602,0.25254 -5.53391,-2.70301 -5.35372,-5.81369 0.36086,-6.22966 9.01629,-0.65631 8.22618,-4.81372 -2.64415,-13.91295 -4.33019,-3.62467 -8.71143,-8.14707 -9.73611,-10.04978 -1.02467,-1.9027 -2.35535,-3.64838 -2.95706,-3.87928 -0.60171,-0.23089 -3.74465,0.69797 -6.98432,2.06414 -5.11438,2.15674 -6.28224,2.32159 -8.8657,1.25148 -2.9011,-1.20167 -3.1607,-1.04842 -10.39356,6.13618 -5.53439,5.49745 -7.68844,8.42223 -8.48253,11.51759 -1.25166,4.87892 -5.50748,8.21856 -12.86508,10.09549 -5.79913,1.47938 -6.54942,2.94138 -2.39304,4.66302 2.35202,0.97423 5.63574,1.06985 13.4226,0.39086 13.71924,-1.19629 39.99953,-0.73151 41.77107,0.73875 2.04963,1.70104 1.64901,6.01392 -0.80085,8.62168 -2.89438,3.08093 -1.40213,4.83219 5.50159,6.45656 5.49678,1.29334 8.69696,2.83614 17.83549,8.59841 3.03113,1.91127 6.80033,3.47504 8.37601,3.47504 2.54351,0 3.18773,-0.71964 5.74345,-6.41585 z m 127.14168,-6.97432 c 0.57895,-0.69759 1.37802,-2.56481 1.77573,-4.14937 0.67183,-2.67683 0.57491,-2.80172 -1.36762,-1.76211 -3.5078,1.87732 -6.6148,1.27691 -12.37185,-2.39077 -6.78558,-4.32294 -8.03441,-4.41346 -8.03441,-0.58234 0,2.18541 0.87461,3.63118 3.283,5.42693 5.81472,4.33561 14.49612,6.13143 16.71515,3.45766 z m -85.35285,-49.38281 c 7.1067,-2.06204 14.80518,-2.69377 18.46566,-1.51526 1.45749,0.46925 2.68794,0.0312 4.00711,-1.42643 1.73063,-1.91233 1.76815,-2.34995 0.41262,-4.81251 -2.01346,-3.6578 -9.40978,-7.25457 -14.91814,-7.25457 -3.6577,0 -4.94469,0.54943 -7.37097,3.14679 -3.65523,3.91293 -5.69659,2.75858 -6.15056,-3.478 -0.29677,-4.07706 -0.43028,-4.2247 -4.09485,-4.52799 -3.71002,-0.30706 -3.78807,-0.24128 -3.78807,3.193 0,1.92858 -0.90327,6.38806 -2.00727,9.90997 -2.49849,7.97051 -2.50328,7.79255 0.23951,8.90864 2.61468,1.06397 5.60125,0.64291 15.20496,-2.14364 z m 64.11978,0.59132 c 2.63685,-1.84692 2.93755,-5.68663 0.59743,-7.62876 -0.9062,-0.75208 -4.30862,-4.86303 -7.56094,-9.13545 -3.2523,-4.27241 -7.33494,-8.78032 -9.0725,-10.01758 -3.08932,-2.19979 -3.14442,-2.38034 -2.49043,-8.16083 0.78049,-6.89864 -0.33014,-7.57469 -5.41494,-3.29611 -2.51904,2.11964 -3.10797,3.38275 -3.10797,6.66587 0,6.39192 2.3858,10.06968 9.61598,14.82325 l 6.54646,4.30406 v 5.41118 c 0,2.97615 0.27591,6.13021 0.61315,7.00903 0.80839,2.10662 7.27954,2.12258 10.27376,0.0254 z M 512.95382,394.07785 c 2.02813,-0.96402 4.46796,-1.60879 5.42185,-1.43284 2.22195,0.40986 3.26352,-1.52836 4.03303,-7.50491 0.51419,-3.99348 1.02892,-4.89768 3.08137,-5.41281 2.99591,-0.75192 3.21266,-2.4131 0.41048,-3.1459 -1.90968,-0.49938 -1.94507,-0.70263 -0.50508,-2.90034 2.04729,-3.12454 2.06494,-3.09916 -1.8402,-2.64326 -3.27538,0.38238 -3.44431,0.22565 -5.05077,-4.6858 -2.20364,-6.73725 -2.15207,-7.21014 1.35003,-12.37847 1.65664,-2.44483 3.02035,-4.78608 3.03046,-5.20277 0.038,-1.56696 -4.11337,-0.68331 -4.74571,1.01016 -0.36304,0.97227 -1.93975,3.8636 -3.50382,6.42517 -3.47861,5.69714 -3.51129,6.65713 -0.33931,9.96797 2.29209,2.39243 2.41088,2.95385 1.40091,6.62125 -2.31706,8.41362 -7.03003,15.65106 -12.7442,19.57055 -1.80565,1.23853 -3.28299,2.73333 -3.28299,3.32176 0,1.56259 8.87164,0.4875 13.28395,-1.60976 z"
       id="path270"
       inkscape:connector-curvature="0"
       transform="matrix(0.26458333,0,0,0.26458333,0,49.999998)" />
    <path
       style="fill:#165016;fill-opacity:1;stroke-width:1.01015258"
       d="m 316.26977,370.74157 c 1.27848,-4.03234 13.33805,-23.11624 19.3736,-30.65813 8.57376,-10.71359 34.77624,-36.78172 43.31327,-43.09118 9.42412,-6.96509 26.49639,-17.19504 35.85728,-21.48619 18.0493,-8.27405 43.21293,-16.36742 44.48575,-14.30795 0.35275,0.57076 1.96633,1.41093 3.58572,1.86704 1.79337,0.50511 2.79167,1.37685 2.55375,2.23 -1.47753,5.29826 -1.34556,5.62493 3.3945,8.40279 4.11093,2.40917 4.63171,3.09032 4.16807,5.45168 -0.45776,2.3314 0.1003,3.11079 4.10213,5.72897 2.54758,1.66676 5.36097,4.27692 6.25196,5.80036 l 1.61998,2.7699 -8.73639,8.44637 c -4.80502,4.6455 -12.52214,10.84556 -17.14916,13.7779 -4.62702,2.93234 -9.18539,6.29454 -10.1297,7.47155 -1.58433,1.97473 -2.54063,2.1171 -12.38112,1.8432 -12.38158,-0.34462 -14.47709,0.34216 -28.85524,9.45704 -10.3398,6.55482 -13.42793,6.92718 -13.93319,1.68005 -0.74094,-7.69461 9.77587,-22.53416 18.79855,-26.52531 2.48753,-1.10036 6.62013,-3.50705 9.18353,-5.34822 2.56342,-1.84116 6.93359,-4.96683 9.71151,-6.94593 2.77792,-1.97911 7.50703,-5.99444 10.50913,-8.92295 5.13727,-5.01135 5.34697,-5.40605 3.56453,-6.7094 -1.04162,-0.76165 -2.58875,-1.08905 -3.43808,-0.72755 -0.84931,0.36149 -2.68063,0.897 -4.06959,1.19002 -1.38896,0.29302 -6.84378,4.32356 -12.12183,8.95677 -13.36789,11.73468 -21.08624,17.36303 -25.4637,18.56854 -2.05998,0.5673 -3.99106,1.42891 -4.29129,1.91469 -0.30023,0.48578 -1.90387,1.35664 -3.56365,1.93524 -2.37727,0.82872 -3.33944,0.73034 -4.53329,-0.46352 -1.34726,-1.34725 -1.79396,-1.31282 -4.02341,0.31016 -3.1254,2.2752 -3.22993,3.3409 -0.32771,3.3409 1.89718,0 1.28778,0.97496 -3.94624,6.31345 -4.31472,4.40084 -7.56323,9.06762 -10.7232,15.40483 -3.14846,6.31412 -6.12071,10.58948 -9.72971,13.99544 -2.85802,2.69724 -6.56458,7.61441 -8.2368,10.92704 -3.2312,6.40098 -4.64797,6.91591 -6.81173,2.47577 -1.16341,-2.38737 -1.10921,-3.1225 0.40407,-5.48125 0.96122,-1.49826 3.15683,-3.92982 4.87914,-5.40348 4.00565,-3.42737 2.75286,-4.71854 -2.66247,-2.74406 -4.32391,1.57654 -4.26084,1.47325 -6.24229,10.22166 -0.55715,2.4599 -1.08956,2.77792 -4.65054,2.77792 -4.49363,0 -5.35132,-1.90687 -2.34958,-5.22376 1.58693,-1.75353 1.50563,-1.84731 -1.60143,-1.84731 -2.51972,0 -4.00912,0.85645 -6.47001,3.72044 -6.90787,8.0394 -9.96783,10.96512 -9.31512,8.90647 z m 61.56151,-63.63961 c 4.90011,-3.61129 9.75568,-6.56599 10.79016,-6.56599 1.03448,0 2.397,0.96441 3.02783,2.14312 1.13225,2.11562 1.17151,2.1059 3.05935,-0.75761 2.42513,-3.6785 2.40933,-4.41597 -0.0946,-4.41597 -2.58571,0 -2.54753,-0.82381 0.17234,-3.71898 1.20596,-1.28368 1.93301,-2.59361 1.61567,-2.91094 -0.71799,-0.718 -10.32555,4.08931 -14.44223,7.22642 -3.73024,2.84263 -15.087,15.56594 -13.89407,15.56594 0.47096,0 4.86547,-2.95469 9.76557,-6.56599 z m 30.22981,-12.82911 c 2.77072,-1.77796 4.52091,-3.40491 3.88931,-3.61545 -1.81708,-0.60569 -12.50565,4.66474 -11.79433,5.81567 1.02522,1.65886 2.55447,1.23322 7.90502,-2.20022 z"
       id="path272"
       inkscape:connector-curvature="0"
       transform="matrix(0.26458333,0,0,0.26458333,0,49.999998)" />
    <path
       style="fill:#165016;fill-opacity:1;stroke-width:1.01015258"
       d="m 432.92879,346.13846 -2.31514,-1.87469 4.38166,-5.19638 c 2.40991,-2.85801 4.73908,-5.19639 5.17594,-5.19639 1.62734,0 7.82173,4.18927 8.39208,5.67557 0.67874,1.76877 -1.00445,5.3677 -3.35417,7.17175 -2.48887,1.9109 -9.62027,1.57416 -12.28037,-0.57986 z"
       id="path274"
       inkscape:connector-curvature="0"
       transform="matrix(0.26458333,0,0,0.26458333,0,49.999998)" />
    <path
       style="fill:#165016;fill-opacity:1;stroke-width:1.01015258"
       d="m 501.7107,307.64728 c -2.63042,-5.15605 -2.77679,-10.45675 -0.27307,-9.88914 0.97227,0.22043 3.01014,-0.20851 4.52859,-0.95318 2.44015,-1.19669 2.97975,-1.13502 4.64566,0.53089 2.67542,2.67542 1.8186,7.87154 -1.43253,8.68752 -1.44867,0.3636 -2.65857,1.60402 -3.03762,3.11428 -0.88628,3.53124 -2.07279,3.13215 -4.43103,-1.49037 z"
       id="path276"
       inkscape:connector-curvature="0"
       transform="matrix(0.26458333,0,0,0.26458333,0,49.999998)" />
    <path
       style="fill:#165016;fill-opacity:1;stroke-width:1.01015258"
       d="m 482.24473,474.20129 c -4.11392,-2.39613 0.63779,-24.16274 5.27479,-24.16274 0.40385,0 1.02292,4.88661 1.37572,10.85914 0.60267,10.20263 0.5135,10.96601 -1.47494,12.6269 -2.43158,2.03104 -2.77355,2.07575 -5.17557,0.6767 z"
       id="path278"
       inkscape:connector-curvature="0"
       transform="matrix(0.26458333,0,0,0.26458333,0,49.999998)" />
    <path
       style="fill:#165016;fill-opacity:1;stroke-width:1.01015258"
       d="m 610.78665,654.20049 c 0,-2.05826 9.18413,-13.14849 15.22112,-18.38016 8.49507,-7.36184 11.01201,-9.00509 13.79299,-9.00509 2.81108,0 2.9059,1.58697 0.32843,5.497 -6.68381,10.13936 -29.34254,27.04178 -29.34254,21.88825 z"
       id="path280"
       inkscape:connector-curvature="0"
       transform="matrix(0.26458333,0,0,0.26458333,0,49.999998)" />
    <path
       style="fill:#008000;fill-opacity:1;stroke-width:1.01015258"
       d="m 503.04549,679.10783 c -6.99466,-7.26522 -7.36914,-9.1811 -2.97259,-15.20836 1.7072,-2.34042 1.84638,-3.15035 0.823,-4.78905 -0.67743,-1.08473 -2.85314,-5.04472 -4.8349,-8.79995 -1.98176,-3.75524 -5.19438,-8.47055 -7.13917,-10.47847 l -3.53596,-3.65077 1.62101,-3.87961 c 3.31771,-7.94039 0.11751,-11.69938 -11.0756,-13.00947 -3.3335,-0.39017 -8.56104,-1.87229 -11.61675,-3.29359 -4.81928,-2.2416 -7.56464,-2.68814 -20.70813,-3.36822 -27.411,-1.41832 -41.26931,-8.02511 -55.99748,-26.69616 -6.74819,-8.55476 -9.83939,-14.2435 -11.7123,-21.55421 -1.47713,-5.76579 -1.48042,-6.99513 -0.0374,-13.97275 0.87021,-4.20791 1.58221,-10.07265 1.58221,-13.03276 0,-7.24976 0.86688,-9.14459 8.13862,-17.78943 7.8585,-9.34238 11.38328,-12.52278 17.18271,-15.50388 2.83588,-1.45774 5.72161,-4.05492 7.49017,-6.74123 1.58233,-2.40344 5.52943,-7.36376 8.77132,-11.02294 3.24189,-3.65917 5.89435,-7.37411 5.89435,-8.25542 0,-0.94619 -1.4999,-2.09738 -3.66271,-2.81117 l -3.6627,-1.2088 0.63913,-6.23829 c 1.21957,-11.90377 6.74256,-29.40287 9.50703,-30.12218 0.94871,-0.24685 5.75321,0.71282 10.67666,2.13261 l 8.95174,2.58145 2.91756,-3.26532 c 3.69001,-4.12985 3.66857,-6.85407 -0.1129,-14.34513 -4.22961,-8.3788 -4.09936,-8.82824 2.77792,-9.58592 3.19461,-0.35196 6.45256,-0.72559 7.2399,-0.83031 0.78733,-0.1047 1.59787,-0.69004 1.80118,-1.30076 0.23784,-0.71445 -2.57667,-1.33759 -7.89314,-1.74757 -4.54454,-0.35046 -8.42028,-0.79466 -8.61275,-0.98713 -0.48148,-0.48148 3.51543,-8.68917 5.83057,-11.97311 1.62188,-2.30058 1.72312,-5.90008 0.16594,-5.90008 -0.27199,0 -2.45158,1.72266 -4.84352,3.82815 -4.94618,4.35378 -11.23233,8.0063 -12.16834,7.0703 -1.09759,-1.0976 3.79778,-12.95645 5.97921,-14.48438 2.40934,-1.68757 6.28439,-1.93236 7.19765,-0.45468 1.13865,1.84238 2.52538,1.04645 2.52538,-1.44947 0,-1.35279 0.44903,-3.64067 0.99785,-5.08417 0.6905,-1.81615 0.64498,-3.18957 -0.14777,-4.45898 -1.55036,-2.48251 -0.27459,-7.19115 1.94709,-7.18635 0.96168,0.002 3.28203,0.93869 5.15633,2.08136 3.18981,1.94469 3.37186,2.34566 2.84576,6.26803 -0.45395,3.38441 0.1794,5.94717 3.29271,13.32347 2.12013,5.02316 4.1658,10.1558 4.54593,11.40586 0.38013,1.25006 1.13319,2.27284 1.67347,2.27284 1.69372,0 8.57512,-3.82779 11.87863,-6.6075 2.74669,-2.31119 3.16534,-3.31215 3.16534,-7.5681 0,-5.35693 2.77543,-9.6975 6.56599,-10.26869 1.58244,-0.23846 1.999,0.2429 1.92202,2.22094 -0.054,1.38896 -0.44363,3.32087 -0.86569,4.29315 -0.57904,1.33386 -0.29458,1.76776 1.15895,1.76776 4.34894,0 5.61786,-4.72101 2.75627,-10.25471 -1.6786,-3.24605 -1.77575,-3.25853 -9.92768,-1.27531 -4.09068,0.99519 -5.65047,-1.48504 -5.65047,-8.98487 v -5.98663 l 10.61348,-10.15291 c 8.03858,-7.68973 10.86152,-11.07401 11.63584,-13.94961 1.66162,-6.17079 11.99263,-13.31698 19.10991,-13.21875 4.72166,0.0652 17.85719,4.78893 22.02784,7.9216 4.09374,3.07488 4.17772,5.03653 0.25254,5.89864 -3.70455,0.81366 -3.97471,3.30644 -0.69251,6.38991 3.98407,3.74284 5.17765,2.88419 6.58752,-4.73901 0.70546,-3.81446 0.98211,-8.13286 0.61477,-9.59645 -0.58574,-2.33376 -0.36265,-2.66105 1.81378,-2.66105 1.9573,0 2.81702,0.85375 4.06885,4.04061 0.99633,2.5364 2.2351,4.04061 3.32759,4.04061 1.52218,0 1.66176,-0.75245 1.11314,-6.00123 l -0.62724,-6.00123 3.66403,-0.31222 c 3.34665,-0.28518 6.62215,-2.94622 5.27936,-4.28899 -0.29597,-0.29598 -4.13153,-1.03794 -8.52347,-1.6488 -4.39194,-0.61086 -8.83168,-1.5636 -9.86608,-2.1172 -4.39272,-2.35091 -7.73018,-16.30935 -4.2215,-17.65576 2.27773,-0.87405 4.23484,1.26494 5.01771,5.484 1.25663,6.77231 6.35353,10.31808 14.83181,10.31808 H 572.83 l -4.76025,-4.83293 c -2.61815,-2.6581 -4.76025,-5.3476 -4.76025,-5.97666 0,-0.62906 1.23759,-2.04527 2.75022,-3.14713 2.53739,-1.84836 2.64473,-2.20049 1.38714,-4.55032 -0.74969,-1.4008 -3.57828,-5.28465 -6.28575,-8.63078 -2.70748,-3.34612 -4.92268,-6.50711 -4.92268,-7.02442 0,-1.00296 4.74645,-2.20326 8.71256,-2.20326 2.91948,0 2.95237,-0.50508 0.36434,-5.59479 l -2.03479,-4.00166 -8.56871,-0.53002 c -7.24675,-0.44826 -8.91984,-0.89312 -10.84466,-2.88349 l -2.27595,-2.35346 2.52538,0.6908 c 1.38896,0.37993 3.32087,0.91264 4.29315,1.18379 2.95358,0.8237 1.97495,-1.50443 -1.35657,-3.22723 -5.28605,-2.73352 -2.59862,-2.72337 8.32393,0.0314 24.60914,6.20673 48.12999,16.63965 69.60403,30.87359 10.45915,6.93278 15.55803,11.3261 30.309,26.1149 14.85801,14.89613 19.14777,19.90984 26.4484,30.9119 9.86687,14.86939 19.10601,32.71625 24.4525,47.23388 4.61101,12.52055 9.31678,30.7147 10.12884,39.1617 l 0.62858,6.53845 -1.81379,-3.03046 c -1.78012,-2.97415 -1.82867,-2.43087 -2.61377,29.23972 -0.51807,20.89843 -1.1927,32.74339 -1.91447,33.61306 -1.9659,2.36876 -4.56107,-1.32756 -7.8625,-11.19867 l -3.08624,-9.2277 -7.50165,-3.93858 -7.50167,-3.93859 -5.11744,4.60103 c -2.8146,2.53057 -7.62984,5.64235 -10.70055,6.91509 l -5.5831,2.31407 4.25442,3.66417 c 4.10297,3.53373 4.24916,3.86411 4.10664,9.28082 -0.25599,9.72984 -9.36567,29.48324 -19.95143,43.26266 -6.51204,8.47668 -17.26638,18.14646 -20.18179,18.14646 -2.80708,0 -4.9923,-2.86207 -6.04897,-7.92257 -0.50552,-2.42102 -3.8933,-6.72596 -11.96845,-15.20863 -8.15331,-8.56478 -12.23956,-13.76865 -14.79887,-18.84648 -3.35778,-6.66206 -3.71258,-7.01472 -7.05722,-7.01472 -2.51561,0 -3.61648,0.49209 -3.85342,1.72247 -0.49513,2.57098 20.34472,35.28571 25.51138,40.04817 2.43507,2.24458 6.88272,5.46674 9.88366,7.16036 3.00092,1.69362 6.52649,4.21855 7.83459,5.61096 1.3081,1.39241 2.96931,2.53166 3.69158,2.53166 0.72226,0 4.39321,-2.62713 8.15767,-5.83806 9.20776,-7.85384 12.48082,-10.32438 13.67806,-10.32438 0.59971,0 0.79025,1.90792 0.47228,4.72899 -0.85948,7.62521 -8.691,21.45376 -25.06772,44.26341 -8.37678,11.66726 -15.81272,22.34962 -16.52432,23.73858 -0.71159,1.38896 -1.59716,5.92638 -1.96792,10.08317 -0.59665,6.6893 -1.04714,7.94265 -3.9203,10.907 -1.78542,1.84208 -6.65906,5.44711 -10.83034,8.0112 -4.17126,2.56408 -10.59223,6.85932 -14.2688,9.54497 -8.54849,6.24447 -15.06755,9.09424 -28.20567,12.32996 -11.60507,2.85816 -22.15689,4.27484 -38.37105,5.15167 l -10.63195,0.57496 z m 86.06879,-49.7213 c 3.23378,-3.23377 3.22533,-5.60175 -0.02,-5.60175 -1.74613,0 -2.96394,0.89824 -4.04061,2.9803 -0.84764,1.63916 -1.54117,3.45744 -1.54117,4.04061 0,1.89602 3.06242,1.12019 5.60175,-1.41916 z m -58.3265,-125.55736 c 3.83294,-7.24803 5.50739,-7.79322 12.61143,-4.10616 3.16814,1.6443 6.58395,2.31687 13.39201,2.63691 8.82466,0.41484 9.43291,0.29818 17.67767,-3.39059 4.69621,-2.10112 9.21759,-4.43757 10.04753,-5.19212 1.12632,-1.024 1.60346,-4.34867 1.88161,-13.11059 0.35331,-11.12983 0.27504,-11.69824 -1.50897,-10.95882 -7.32451,3.03583 -22.42183,7.60486 -25.1285,7.60486 -3.93145,0 -5.2093,-1.39997 -8.54806,-9.36493 -3.11153,-7.42289 -5.03852,-8.91285 -8.79141,-6.79751 -3.87233,2.18267 -3.8533,3.25337 0.14286,8.03646 4.23193,5.06528 4.41484,6.10568 1.07349,6.10568 -1.76146,0 -2.96718,0.90452 -4.08363,3.06349 -0.87749,1.69687 -2.0667,2.76527 -2.66583,2.39499 -0.5949,-0.36767 -4.05232,-5.26915 -7.68315,-10.89217 -5.96286,-9.2346 -25.39765,-30.9318 -27.70649,-30.9318 -0.45007,0 -0.81832,1.4495 -0.81832,3.2211 0,2.74282 1.38742,4.55282 9.34391,12.18987 8.45515,8.11568 9.17577,9.093 7.57614,10.27478 -1.13057,0.83526 -1.76776,2.65522 -1.76776,5.04913 0,4.94715 -1.2027,6.96896 -5.73703,9.64428 -3.58431,2.11479 -3.93577,2.14417 -7.17451,0.59972 -4.36731,-2.08262 -3.75201,-3.76778 1.87394,-5.13232 7.35419,-1.78368 6.77784,-4.25677 -3.2677,-14.02167 -4.63272,-4.50331 -9.59537,-9.74971 -11.02809,-11.65868 l -2.60496,-3.47084 -6.09607,2.27978 c -4.40764,1.64835 -7.10908,2.08974 -9.75351,1.59364 -3.48731,-0.65423 -3.96458,-0.37899 -10.26074,5.91716 -3.63182,3.63182 -7.31781,8.3404 -8.19109,10.4635 -2.32193,5.64507 -6.10196,9.14324 -11.91704,11.02844 -6.67583,2.16424 -7.70016,3.17469 -5.14018,5.07058 1.69806,1.25756 5.48445,1.40263 23.73859,0.90955 11.94505,-0.32266 24.2184,-0.23106 27.27411,0.20355 5.07329,0.72159 5.5835,1.03042 5.87429,3.55582 0.17514,1.52108 -0.39307,3.78143 -1.26269,5.02299 -2.46325,3.51678 -1.94203,4.54515 3.21709,6.34734 5.34467,1.86699 14.55774,6.21004 21.46574,10.11895 2.73251,1.5462 5.75446,2.45988 7.57614,2.29063 2.58632,-0.24028 3.51979,-1.20685 6.36918,-6.595 z m 127.31389,-7.87621 c 2.06415,-4.53032 1.57561,-5.37016 -2.78376,-4.78545 -3.15184,0.42275 -5.13915,-0.11016 -9.77584,-2.6215 -7.21959,-3.91029 -8.49146,-3.95489 -8.49146,-0.29775 0,5.09025 7.80116,10.16201 15.74775,10.23807 3.46575,0.0331 4.3198,-0.37481 5.30331,-2.53337 z m -88.3945,-47.06225 c 4.53723,-1.1869 11.67702,-2.23753 15.86618,-2.33473 4.18916,-0.0972 8.16664,-0.51665 8.83883,-0.93208 1.96794,-1.21626 1.40834,-5.16449 -1.05067,-7.41294 -6.49809,-5.94168 -15.96866,-7.17513 -21.2125,-2.76272 -3.59907,3.0284 -4.81356,2.33003 -5.71895,-3.28854 -0.56843,-3.52753 -0.9091,-3.86393 -4.19344,-4.14093 l -3.57474,-0.3015 -2.3855,10.74736 c -3.11964,14.05483 -2.44455,14.5789 13.43079,10.42608 z m 66.50629,-0.52396 c 3.32489,-3.00899 2.2185,-6.01773 -5.61574,-15.27164 -4.10468,-4.8485 -8.65036,-9.91747 -10.10153,-11.26438 -2.26236,-2.09983 -2.63848,-3.28782 -2.63848,-8.33376 0,-5.0569 -0.26349,-5.88483 -1.8728,-5.88483 -1.03003,0 -3.07559,1.11471 -4.54569,2.47715 -2.17632,2.01695 -2.67218,3.37751 -2.6691,7.3236 0.005,6.50065 2.42797,10.15251 9.95287,15.00123 l 6.18812,3.98737 0.009,6.14509 c 0.005,3.37981 0.31189,6.44815 0.68228,6.81853 1.35256,1.35256 8.78635,0.65315 10.61124,-0.99836 z M 512.71307,394.87618 c 9.05009,-2.60423 8.37593,-1.86251 10.57948,-11.63954 0.33652,-1.49313 1.48878,-2.88992 2.63023,-3.18842 2.34628,-0.61357 2.77798,-3.75081 0.51613,-3.75081 -1.71541,0 -2.03178,-1.58183 -0.50508,-2.52538 2.34505,-1.44932 0.94924,-3.53553 -2.36548,-3.53553 -3.04355,0 -3.49076,-0.38421 -4.54569,-3.90527 -1.70083,-5.67689 -1.46771,-7.78518 1.35533,-12.25718 3.1036,-4.91641 3.17828,-6.2969 0.31799,-5.87863 -2.59872,0.38002 -8.80441,10.10668 -8.86496,13.89475 -0.0216,1.35315 0.94352,3.50647 2.14479,4.78515 2.01164,2.14129 2.0845,2.66496 0.92269,6.63111 -1.86323,6.36066 -5.41388,11.96841 -10.61158,16.75948 -2.53938,2.34073 -4.61705,4.70106 -4.61705,5.24521 0,1.50862 6.733,1.18087 13.0432,-0.63494 z"
       id="path290"
       inkscape:connector-curvature="0"
       transform="matrix(0.26458333,0,0,0.26458333,0,49.999998)" />
    <path
       style="fill:#008000;fill-opacity:1;stroke-width:1.01015258"
       d="m 317.86692,368.6321 c -0.0627,-2.81405 18.76099,-29.16919 27.8581,-39.00415 30.71947,-33.21109 54.2853,-49.32536 91.31539,-62.4413 16.81707,-5.95656 20.23256,-6.5536 24.34433,-4.25547 2.92064,1.6324 3.38661,2.38909 3.11254,5.05457 -0.27767,2.70047 0.24715,3.51162 3.78807,5.8549 3.19178,2.11222 4.1104,3.35655 4.1104,5.56782 0,2.22352 0.96267,3.51004 4.39204,5.8695 2.41562,1.66199 5.13037,4.14864 6.03278,5.52589 1.62903,2.48623 1.58242,2.55896 -6.53479,10.19505 -4.49654,4.23002 -11.18877,9.79598 -14.87161,12.3688 -3.68286,2.57282 -8.70261,6.19302 -11.15502,8.04489 -4.39462,3.31847 -4.61314,3.36735 -15.15229,3.38922 -12.06553,0.025 -13.40986,0.46518 -27.27511,8.9302 -4.6753,2.85436 -9.56191,5.18975 -10.85914,5.18975 -2.02351,0 -2.35861,-0.50388 -2.35861,-3.54655 0,-7.61031 9.2225,-20.69673 17.56396,-24.92266 7.43606,-3.76724 22.15517,-14.31863 28.88778,-20.70822 6.18795,-5.87265 6.4796,-6.34949 4.88005,-7.97859 -3.2702,-3.33063 -9.08783,-0.43043 -23.56868,11.74941 -16.10919,13.54944 -30.14901,21.37976 -34.32593,19.14434 -2.18583,-1.16983 -2.77036,-1.10615 -4.53904,0.49449 -2.43959,2.2078 -2.60329,3.54442 -0.43409,3.54442 1.03605,0 -0.23055,2.03791 -3.61,5.80838 -2.86332,3.1946 -7.33172,9.62165 -9.92979,14.28233 -2.59807,4.66067 -7.06412,11.10376 -9.92456,14.31797 -2.86043,3.21422 -6.71806,8.38074 -8.57251,11.48117 -3.61395,6.04211 -4.87558,6.49693 -6.36135,2.29325 -0.82067,-2.32189 -0.39852,-3.30877 3.28299,-7.67483 2.32362,-2.75567 4.22476,-5.26968 4.22476,-5.5867 0,-1.105 -4.16178,-0.5656 -7.01331,0.90898 -2.20425,1.13986 -3.15043,2.64443 -4.06779,6.4684 -1.28885,5.37254 -3.67593,7.01161 -7.34876,5.04596 -1.77958,-0.95239 -1.80797,-1.18545 -0.34176,-2.8056 2.3088,-2.55119 2.00504,-3.11959 -1.68397,-3.15107 -2.73192,-0.0233 -4.16907,0.95166 -8.56178,5.80837 -2.90334,3.21002 -5.28982,5.34171 -5.3033,4.73708 z m 60.24405,-61.02506 c 9.21328,-6.38674 11.69127,-7.17933 13.42223,-4.29315 0.98081,1.63539 1.21149,1.58919 3.08065,-0.61699 2.41736,-2.85322 2.57836,-4.76115 0.47002,-5.5702 -1.37619,-0.52809 -1.36081,-0.88436 0.13683,-3.17005 6.95535,-10.61521 -17.90858,5.51338 -25.98517,16.85591 -3.06986,4.31122 -0.76937,3.48036 8.87544,-3.20552 z m 29.57017,-12.58598 c 4.72514,-2.98284 5.90314,-4.58662 3.36896,-4.58662 -2.5325,0 -10.68591,4.24109 -11.1665,5.80838 -0.64415,2.10065 3.58394,1.43817 7.79754,-1.22176 z"
       id="path292"
       inkscape:connector-curvature="0"
       transform="matrix(0.26458333,0,0,0.26458333,0,49.999998)" />
    <path
       style="fill:#008000;fill-opacity:1;stroke-width:1.01015258"
       d="m 432.97298,345.45545 c -1.07114,-1.29065 -0.79068,-2.15746 1.68958,-5.2219 4.57986,-5.65858 5.61021,-6.01669 9.82188,-3.41374 4.15322,2.56683 4.5965,4.76461 1.60799,7.9724 -2.54061,2.72703 -11.04965,3.15719 -13.11945,0.66324 z"
       id="path294"
       inkscape:connector-curvature="0"
       transform="matrix(0.26458333,0,0,0.26458333,0,49.999998)" />
    <path
       style="fill:#008000;fill-opacity:1;stroke-width:1.01015258"
       d="m 502.28734,307.78512 c -0.81126,-1.5688 -1.61843,-4.13489 -1.79371,-5.70242 -0.28661,-2.56321 0.12994,-3.00178 4.13891,-4.35769 4.14659,-1.40245 4.55185,-1.37875 5.80838,0.33965 2.11676,2.89485 1.60592,5.18251 -1.67968,7.52207 -1.66675,1.18683 -3.03046,2.80878 -3.03046,3.60432 0,2.39642 -1.87253,1.63188 -3.44344,-1.40593 z"
       id="path296"
       inkscape:connector-curvature="0"
       transform="matrix(0.26458333,0,0,0.26458333,0,49.999998)" />
    <path
       style="fill:#008000;fill-opacity:1;stroke-width:1.01015258"
       d="m 482.16055,473.60877 c -2.2969,-2.2969 1.58124,-22.56007 4.31774,-22.56007 2.11305,0 2.90066,19.98837 0.86771,22.02132 -1.3207,1.32071 -4.11334,1.61086 -5.18545,0.53875 z"
       id="path298"
       inkscape:connector-curvature="0"
       transform="matrix(0.26458333,0,0,0.26458333,0,49.999998)" />
    <path
       style="fill:#008000;fill-opacity:1;stroke-width:1.01015258"
       d="m 611.7968,653.80677 c 0,-0.73954 2.4358,-4.29767 5.4129,-7.90694 8.31245,-10.07757 20.64318,-19.95661 23.05148,-18.4682 1.83526,1.13425 0.56274,3.59778 -4.91407,9.51339 -9.08028,9.80779 -23.55031,20.16816 -23.55031,16.86175 z"
       id="path300"
       inkscape:connector-curvature="0"
       transform="matrix(0.26458333,0,0,0.26458333,0,49.999998)" />
  </g>
  <g
     inkscape:groupmode="layer"
     id="layer6"
     inkscape:label="Layer 5"
     transform="translate(0,-49.999998)" />
  <g
     inkscape:label="Layer 1"
     inkscape:groupmode="layer"
     id="layer1"
     transform="translate(0,-46.999998)">
    <g
       id="g1091"
       transform="matrix(0.5423252,0,0,0.5501065,228.60736,-198.91344)">
      <path
         style="fill:#36a8c5;stroke-width:0.26458332"
         d="m -184.46986,776.28767 c -37.10122,-3.44262 -68.19198,-25.18046 -85.5386,-59.80633 -6.63459,-13.24341 -9.57364,-26.39582 -9.57364,-42.84253 0,-12.55654 1.79712,-23.58746 5.72983,-35.17025 2.25916,-6.65379 3.88558,-9.54178 7.03474,-12.49136 0.91071,-0.85299 2.32859,-2.44568 3.15085,-3.53932 0.82225,-1.09363 1.72729,-2.19863 2.01119,-2.45556 0.51852,-0.46925 3.23459,-0.96361 3.23459,-0.58873 0,0.1102 -0.35718,0.60717 -0.79375,1.10439 -0.91508,1.04222 -1.01325,1.80786 -0.28197,2.19923 0.64823,0.34692 3.07254,0.35665 3.71112,0.0149 0.59037,-0.31595 1.06826,-1.6061 1.07025,-2.88933 7.9e-4,-0.52399 0.12547,-1.39919 0.27701,-1.9449 0.25714,-0.92589 0.34327,-0.99219 1.28905,-0.99219 0.57811,0 1.155,-0.17049 1.34288,-0.39687 0.35025,-0.42203 2.11666,-0.55783 2.11666,-0.16272 0,0.12878 -0.31715,0.44196 -0.70478,0.69594 -1.17929,0.7727 -3.01778,2.57135 -3.41657,3.34252 -0.61537,1.18999 -0.4678,2.37824 0.45041,3.62681 1.27401,1.73239 1.70514,1.49795 3.09257,-1.68172 1.4072,-3.225 1.99445,-4.02598 3.96515,-5.40835 2.10064,-1.47351 3.10812,-2.90653 5.43082,-7.72467 2.08907,-4.33348 2.44162,-4.80184 5.81074,-7.71936 2.16702,-1.87656 2.39729,-2.71627 0.68176,-2.48617 l -1.09407,0.14675 1.29251,-1.14214 c 1.01089,-0.89329 1.31312,-1.04738 1.38712,-0.70722 0.16927,0.77804 0.61469,1.09637 1.53408,1.09637 1.02478,0 3.15134,-0.99233 3.89854,-1.8192 0.34268,-0.37922 0.69014,-0.50581 1.10354,-0.40205 1.34555,0.33771 8.08869,-4.62849 14.97216,-11.02674 2.03751,-1.8939 2.85925,-2.51016 2.96826,-2.22609 0.21491,0.56006 0.69746,0.48851 1.81168,-0.26863 1.22218,-0.83048 1.29758,-0.82691 2.29937,0.1089 l 0.82467,0.77036 -0.99513,0.61415 c -1.40711,0.86841 -2.87272,2.24011 -3.53029,3.30409 -0.32673,0.52866 -1.09472,1.17968 -1.83291,1.55375 -0.6988,0.35411 -2.78932,1.78602 -4.6456,3.18202 -3.63949,2.73707 -4.49079,3.23818 -6.72903,3.96104 -1.19218,0.38502 -1.83889,0.85785 -3.57797,2.61596 -3.86745,3.90974 -6.1772,9.79962 -4.59202,11.70965 0.25434,0.30647 0.67159,0.38334 1.59767,0.29436 1.03017,-0.099 1.90381,-0.54644 4.90506,-2.51222 7.40887,-4.85272 10.28845,-5.75367 14.63185,-4.57796 2.59246,0.70175 5.82453,-0.10848 6.03441,-1.51274 0.0471,-0.31495 0.34777,-0.61077 0.71439,-0.70278 0.34821,-0.0874 2.09879,-1.14389 3.89018,-2.34776 1.79139,-1.20388 3.62012,-2.33924 4.06383,-2.52303 0.44372,-0.1838 1.01247,-0.68241 1.26389,-1.10804 0.25143,-0.42563 1.30491,-1.52191 2.34108,-2.43618 4.15386,-3.6652 4.97555,-4.51404 4.97555,-5.13994 0,-0.34041 -0.23813,-0.76765 -0.52917,-0.9494 -0.29104,-0.18176 -0.52916,-0.51769 -0.52916,-0.7465 0,-0.59597 -1.19071,-1.63853 -3.175,-2.77998 -0.94589,-0.54412 -1.76959,-1.03118 -1.83044,-1.08236 -0.0608,-0.0512 0.0503,-0.39377 0.24699,-0.7613 0.64621,-1.20746 0.1133,-1.98546 -2.11623,-3.08952 -1.48644,-0.73608 -2.02468,-1.14791 -2.15959,-1.65238 -0.0988,-0.36958 -0.0702,-0.7396 0.0635,-0.82228 0.13379,-0.0827 0.42848,-0.50853 0.65487,-0.94632 0.53699,-1.03844 0.13989,-1.55171 -1.20053,-1.55171 -0.63919,0 -1.14819,-0.18041 -1.45005,-0.51396 -0.44635,-0.49321 -0.43856,-0.54051 0.19317,-1.17223 0.85568,-0.85569 1.81016,-1.09032 7.06911,-1.73772 6.98783,-0.86024 10.10273,-1.06963 15.875,-1.06716 9.26437,0.004 11.52167,0.44744 17.72708,3.48271 3.40002,1.66306 3.98277,2.37328 0.95267,1.16105 -0.93707,-0.37489 -1.88276,-0.61293 -2.10151,-0.52899 -1.33695,0.51304 -0.1135,2.08163 2.3394,2.99938 1.70125,0.63652 3.65358,0.65473 5.89484,0.055 0.62275,-0.16664 1.42642,-0.22916 1.78594,-0.13893 0.57688,0.14479 0.65414,0.30831 0.65771,1.39215 0.005,1.39725 0.0996,1.58261 1.15533,2.25535 1.07246,0.68339 0.5219,0.94196 -2.08542,0.97944 -2.76976,0.0398 -3.41591,0.23103 -3.53262,1.04545 -0.0701,0.4895 0.16774,0.87737 0.96695,1.57665 0.92854,0.81245 4.99084,5.99698 5.62704,7.18156 0.19142,0.35642 0.0263,0.48525 -0.93115,0.72633 -1.43945,0.36246 -1.99793,0.89578 -1.99793,1.90791 0,0.96005 1.48976,2.65515 3.61888,4.1177 l 1.48032,1.01686 -1.27159,0.0825 c -1.79835,0.11665 -4.58234,-0.40469 -5.8188,-1.08965 -1.26673,-0.70172 -2.24214,-2.45052 -2.24214,-4.0199 0,-0.59318 -0.26789,-1.60975 -0.59531,-2.25905 -0.52881,-1.04864 -0.69559,-1.18054 -1.4928,-1.18054 -1.14135,0 -1.88652,0.93064 -2.0735,2.58959 -0.10245,0.90887 0.0692,1.7868 0.71699,3.66825 0.46843,1.36038 1.04814,2.69906 1.28825,2.97484 0.93883,1.07831 2.63939,1.5487 6.38032,1.76487 1.96969,0.11381 3.61102,0.216 3.6474,0.22709 0.28989,0.0883 -0.0499,1.18393 -0.54615,1.76081 -0.52284,0.60785 -0.69423,0.66798 -1.17323,0.41163 -0.30851,-0.16511 -0.9289,-0.3002 -1.37863,-0.3002 -1.15204,0 -1.44493,0.86907 -1.08175,3.20983 0.15244,0.98248 0.27716,2.03446 0.27716,2.33774 0,0.52693 -0.0351,0.53328 -0.78992,0.14295 -0.77593,-0.40125 -0.87601,-0.61683 -1.18622,-2.55508 -0.19346,-1.20886 -0.63533,-1.5809 -2.0589,-1.73352 -1.43921,-0.1543 -2.3621,0.42541 -1.85031,1.16227 1.11225,1.60136 1.20541,2.04347 0.7562,3.58871 -0.23491,0.80804 -0.4271,1.72247 -0.4271,2.03206 0,0.30959 -0.1786,0.63143 -0.39688,0.71519 -0.44498,0.17075 -0.54618,1.55967 -0.13229,1.81547 0.45046,0.2784 0.29184,0.66146 -0.27389,0.66146 -0.83431,0 -1.80113,-0.76075 -2.51508,-1.97901 -0.35783,-0.61061 -0.65061,-1.17369 -0.65061,-1.2513 0,-0.0776 0.61591,-0.22281 1.36868,-0.32266 1.85797,-0.24647 2.33548,-0.54417 2.33548,-1.45601 0,-1.45665 -3.58708,-3.71519 -7.40833,-4.66453 -0.94588,-0.23499 -2.3499,-0.73087 -3.12004,-1.10194 -1.21344,-0.58467 -1.61701,-0.65202 -3.02501,-0.50486 -2.27923,0.23823 -5.05832,1.67374 -7.35265,3.79793 -1.6865,1.56145 -1.84813,1.80241 -1.84813,2.75519 0,2.13063 -1.32805,3.71436 -6.16862,7.35625 -2.76371,2.07934 -4.15363,3.56062 -4.80598,5.1219 -0.9735,2.32992 -0.008,6.82229 1.62612,7.56688 0.81698,0.37224 1.71196,0.16359 3.42756,-0.7991 0.74532,-0.41823 1.51923,-0.76014 1.71979,-0.7598 0.53479,7.9e-4 1.8728,2.9248 1.8728,4.09256 0,1.13122 -0.58409,1.86247 -1.70657,2.13654 -0.92063,0.22479 -0.9372,-0.1285 -0.0661,-1.41037 0.70553,-1.03829 0.8654,-2.39289 0.34396,-2.91434 -0.17463,-0.17462 -0.75208,-0.3175 -1.28322,-0.3175 -1.29771,0 -2.93137,1.20903 -3.65584,2.70559 -0.62448,1.29 -0.76985,3.82425 -0.27267,4.75325 0.41582,0.77696 -0.32751,1.41583 -3.95855,3.40229 -3.14648,1.72136 -3.46291,1.75113 -3.47276,0.32676 -0.008,-1.20274 -1.89247,-5.58026 -3.8626,-8.9741 -0.47375,-0.81611 -0.47137,-0.84741 0.15385,-2.02596 0.53841,-1.01492 0.59682,-1.35038 0.38393,-2.20489 -0.28617,-1.14859 -1.60855,-2.21627 -2.74497,-2.21627 -0.3827,0 -0.89971,-0.23813 -1.14891,-0.52917 -0.86127,-1.00589 -1.74091,-0.49048 -2.60557,1.52668 -0.65936,1.53822 -0.63225,1.81705 0.22908,2.35589 0.40018,0.25036 0.77696,0.49098 0.83729,0.53472 0.0603,0.0437 -0.23007,0.75105 -0.64533,1.5718 -0.73298,1.4487 -0.74198,1.51502 -0.30813,2.27095 0.6242,1.08761 0.55686,1.45736 -0.14842,0.81498 -1.44373,-1.31498 -2.12098,-1.39295 -4.07403,-0.46901 -1.64791,0.77959 -2.08497,1.36725 -2.33539,3.1401 -0.11499,0.81408 -0.514,1.77636 -1.07437,2.591 -1.193,1.73432 -0.84978,2.77324 0.80306,2.43086 2.17811,-0.45118 5.47318,-2.67361 6.58934,-4.4443 0.72973,-1.15766 0.79313,-1.19687 1.25677,-0.77728 0.76638,0.69356 0.59621,1.16148 -1.01426,2.78893 -1.36385,1.37823 -1.47579,1.57707 -1.21281,2.15427 0.2591,0.56865 0.18019,0.73362 -0.74642,1.56029 -1.06135,0.94687 -1.21805,1.3627 -0.77576,2.05845 0.20809,0.32735 1.01857,0.395 4.62615,0.38616 2.40563,-0.006 4.37387,0.0705 4.37387,0.16971 0,0.0992 -0.47961,0.37233 -1.06579,0.60687 -0.84131,0.33663 -1.60753,0.39295 -3.63802,0.26739 -4.05283,-0.25061 -4.50474,0.57567 -2.22073,4.06041 2.39827,3.65909 2.66812,4.98769 1.41348,6.95923 -0.41171,0.64695 -0.94961,1.34144 -1.19533,1.5433 -0.66592,0.54707 -2.56461,0.22807 -5.33351,-0.8961 -2.66059,-1.08019 -4.75265,-1.42628 -5.66618,-0.93737 -0.74805,0.40034 -1.34392,1.79683 -1.34392,3.14964 0,0.5916 -0.45854,2.19551 -1.06525,3.72608 -1.28738,3.24772 -1.78168,5.28414 -1.99905,8.23569 -0.22555,3.06257 0.002,3.56176 1.72406,3.79027 3.00283,0.39833 2.9172,0.75518 -1.13871,4.74522 -3.44961,3.39359 -4.54259,4.84051 -4.87881,6.45874 -0.1956,0.94142 -0.27809,1.0055 -1.80975,1.40599 -3.05808,0.79959 -4.80937,2.20818 -8.53423,6.86419 -1.22239,1.52797 -2.76996,3.34835 -3.43904,4.04529 l -1.21651,1.26716 -0.007,3.49534 c -0.006,3.32387 -0.0552,3.63934 -0.99219,6.43091 -1.09031,3.24823 -1.17159,4.21429 -0.58802,6.98852 0.57998,2.75709 1.78636,5.43976 3.83204,8.52136 1.86091,2.80326 7.06787,8.74516 8.85363,10.10327 1.33664,1.01654 6.84001,3.38091 10.17689,4.37223 3.57758,1.06282 6.33893,1.56354 9.77247,1.77208 2.34859,0.14264 3.10521,0.091 4.25377,-0.29052 1.89086,-0.62804 2.75996,-0.43953 6.34302,1.37585 l 3.01561,1.52789 2.96434,0.018 c 2.70285,0.0164 3.06862,0.0791 4.1465,0.71076 2.06377,1.20944 2.6628,3.77361 1.28088,5.48278 -0.29691,0.36722 -0.68269,0.94955 -0.85729,1.29407 -0.34583,0.68236 -0.52748,0.46097 2.16658,2.6406 1.3065,1.05702 1.98503,2.10821 3.18547,4.93508 0.99653,2.34667 1.82248,3.79209 2.47756,4.33576 0.62893,0.52196 0.53631,0.9122 -0.37671,1.58722 -1.79598,1.32783 -2.30517,3.36543 -1.3224,5.29182 0.59799,1.17216 2.99398,3.44174 4.67093,4.4245 0.64086,0.37557 1.1652,0.73107 1.1652,0.79 0,0.23164 -7.74487,0.0256 -11.24479,-0.29918 z m -20.36197,-162.01598 c 3.122,-1.41813 3.33198,-4.73669 0.35613,-5.62828 -0.58286,-0.17463 -1.17597,-0.53468 -1.31803,-0.80012 -0.5059,-0.94529 -1.45506,-0.5815 -2.71012,1.03875 -0.64816,0.83674 -1.54808,1.87105 -1.99984,2.29846 -1.30404,1.23375 -1.05183,2.11747 0.89842,3.14793 1.08318,0.57233 3.4505,0.54419 4.77344,-0.0567 z m 30.3355,-18.26077 c 0.1088,-0.6373 0.26296,-1.22387 0.34258,-1.30349 0.0796,-0.0796 0.64857,-0.21282 1.26433,-0.29599 1.08478,-0.14651 1.11956,-0.18128 1.11956,-1.11914 0,-0.53236 0.0893,-1.05742 0.19844,-1.16679 0.24075,-0.24125 0.25931,-1.23168 0.0341,-1.8186 -0.17762,-0.46287 -1.42899,-1.20248 -2.03454,-1.20248 -0.2052,0 -0.80003,0.28973 -1.32184,0.64384 -0.82293,0.55845 -1.0531,0.60446 -1.73551,0.34688 -1.85793,-0.70129 -2.10848,1.217 -0.58436,4.47398 1.43187,3.05984 2.35722,3.55084 2.71726,1.44179 z m 33.00457,175.12452 c 0.35462,-0.3077 1.36665,-0.98252 2.24896,-1.49961 0.88231,-0.51708 2.3807,-1.6706 3.32977,-2.56338 1.21413,-1.14212 2.62569,-2.08738 4.7625,-3.18926 1.67031,-0.86131 3.76565,-2.02311 4.65631,-2.58176 3.2133,-2.01551 5.13012,-4.84979 4.74547,-7.01682 -0.53814,-3.03174 -0.49307,-3.68997 0.36258,-5.29533 0.45185,-0.84775 1.63004,-2.49169 2.6182,-3.6532 0.98817,-1.16153 2.40975,-3.02137 3.15907,-4.133 0.74932,-1.11164 2.85151,-3.99682 4.67152,-6.41153 6.03926,-8.0126 8.45327,-12.07401 9.9192,-16.68837 1.134536,-3.57126 1.238626,-4.48865 0.58363,-5.14365 -0.8563,-0.8563 -1.63827,-0.37525 -5.87651,3.61508 -5.18816,4.88469 -6.34567,5.4616 -6.74006,3.35931 -0.13109,-0.69878 -0.36959,-1.03771 -0.87449,-1.24277 -0.38184,-0.15508 -1.88879,-0.84955 -3.34879,-1.54327 -4.46879,-2.12336 -7.54666,-5.40828 -10.18941,-10.87486 -0.85389,-1.7663 -2.05212,-3.64782 -3.38011,-5.30763 -1.13151,-1.41423 -2.49673,-3.31417 -3.03383,-4.22209 l -0.97655,-1.65075 0.70787,-0.73885 c 1.58246,-1.65173 3.57054,-0.21554 4.31788,3.11924 0.43185,1.927 2.37044,4.58849 5.23359,7.18518 1.40584,1.275 3.71933,3.47489 5.14111,4.88863 2.11918,2.10722 2.58503,2.71281 2.58503,3.36042 0,0.43448 0.13488,1.41885 0.29972,2.1875 0.34657,1.616 1.63388,3.12643 2.66459,3.12643 1.17666,0 3.31385,-1.32421 5.03435,-3.1193 0.93595,-0.97652 2.30433,-2.27711 3.04085,-2.89019 1.73945,-1.44794 3.63181,-3.99617 5.65619,-7.61655 0.895066,-1.60073 2.252886,-3.92245 3.017396,-5.15938 0.8771,-1.41909 1.79405,-3.43206 2.48499,-5.4552 2.04052,-5.97495 2.04852,-9.04546 0.0269,-10.3317 -0.50932,-0.32405 -1.40229,-0.92 -1.98437,-1.32434 l -1.05833,-0.73515 1.47594,-0.16521 c 2.07463,-0.23222 4.42032,-1.56545 6.61417,-3.7593 1.00747,-1.00747 1.83176,-1.9385 1.83176,-2.06897 0,-0.51465 0.76353,-0.17089 2.99915,1.35029 1.7054,1.1604 2.57165,1.5875 3.21983,1.5875 h 0.88674 l 1.46535,4.57792 c 1.67514,5.23331 2.28946,6.36305 3.52578,6.48398 0.65006,0.0636 0.93107,-0.0647 1.2679,-0.57875 0.8139,-1.24216 1.10156,-3.05766 0.90642,-5.72065 -0.41402,-5.65003 -0.42145,-26.74633 -0.009,-26.31281 0.32377,0.34053 1.33051,3.61803 2.67789,8.71802 l 1.11841,4.23333 -0.15263,5.95312 c -0.23752,9.26379 -1.36966,16.74023 -3.88002,25.62281 -5.28911,18.71485 -14.61427,33.77966 -29.088016,46.99176 -8.1441,7.4342 -14.86248,12.10137 -24.36045,16.92286 -4.20808,2.13617 -12.18484,5.53894 -14.28749,6.09484 l -0.66146,0.17487 0.64476,-0.55946 z m 20.20431,-9.16647 c 2.49609,-1.28981 6.32038,-4.12109 8.53907,-6.32181 2.57537,-2.55452 4.61081,-5.34697 4.61081,-6.32563 0,-1.36065 -1.69439,-1.61752 -3.33651,-0.50582 -1.99275,1.34907 -6.34051,5.06903 -8.07236,6.90674 -2.56642,2.72329 -4.39342,5.53783 -4.0967,6.31107 0.19267,0.50208 1.31885,0.47122 2.35569,-0.0646 z m -15.26032,-11.66714 c 0.27909,-1.1612 1.09815,-2.63235 1.56537,-2.81164 0.82664,-0.31722 1.974,-0.18284 1.974,0.23119 0,0.78616 -2.71684,3.30805 -3.56377,3.30805 -0.0828,0 -0.0718,-0.32742 0.0244,-0.7276 z m -29.79813,-57.78165 c -1.56671,-0.29288 -3.2535,-1.18808 -5.36423,-2.84684 -2.12456,-1.66962 -4.20939,-2.64714 -6.05858,-2.84071 -1.78535,-0.18688 -3.49599,-0.80182 -4.10621,-1.4761 -0.45799,-0.50608 -0.45185,-0.53964 0.18549,-1.0137 1.50113,-1.11655 1.5852,-1.26391 1.5852,-2.77855 0,-1.22678 -0.11258,-1.57981 -0.68693,-2.15417 -0.65935,-0.65934 -0.77484,-0.68073 -2.87539,-0.53249 -1.53853,0.10858 -2.56493,0.0411 -3.45616,-0.22708 -1.8058,-0.54347 -6.45438,-0.48092 -10.97319,0.14764 -5.31441,0.73923 -8.56292,0.71408 -10.06056,-0.0779 -0.63138,-0.33388 -1.18862,-0.72903 -1.23831,-0.87811 -0.0506,-0.15169 0.74284,-0.40002 1.80164,-0.56391 2.25487,-0.34902 4.87977,-1.57545 6.33527,-2.96003 0.8493,-0.80793 1.0453,-1.17767 1.0453,-1.97192 0,-1.48831 0.94188,-3.0286 3.01176,-4.92522 1.03229,-0.94589 2.50949,-2.34868 3.28267,-3.11733 l 1.40577,-1.39753 0.6835,0.53764 c 1.17376,0.92328 3.09443,0.74062 5.47509,-0.5207 1.09864,-0.58208 2.22141,-1.05833 2.49503,-1.05833 0.64032,0 1.22813,0.68202 1.60731,1.86491 0.34961,1.09063 1.89089,2.63281 5.07669,5.07961 3.77145,2.89662 4.67831,4.21695 3.74777,5.45654 -0.478,0.63677 -0.68143,0.69581 -2.39736,0.69581 -2.2485,0 -2.96245,0.45477 -2.5465,1.62202 0.64905,1.82138 3.9597,3.15552 5.15225,2.07628 0.28747,-0.26016 0.52268,-0.61903 0.52268,-0.79748 0,-0.17845 0.53908,-0.4602 1.19796,-0.6261 1.71579,-0.43205 2.3266,-1.463 2.13148,-3.59763 -0.0798,-0.87313 -0.22009,-1.85338 -0.31175,-2.17834 -0.15363,-0.54469 -0.0868,-0.58603 0.85523,-0.52917 0.94454,0.057 1.02841,0.005 1.10825,-0.69349 0.10947,-0.95701 -0.41712,-1.5332 -3.65825,-4.00279 -4.1043,-3.12728 -5.82083,-5.27179 -5.82083,-7.27209 0,-1.24587 0.63229,-0.99095 2.04315,0.8237 2.1203,2.72715 3.31316,3.95449 4.87272,5.01356 2.01173,1.36614 3.10967,2.69974 5.31629,6.45737 3.59973,6.12993 4.83918,7.8052 5.77468,7.8052 0.6129,0 0.77838,-0.27882 1.15766,-1.95065 0.33088,-1.45845 0.45515,-1.51781 1.93507,-0.92433 0.74355,0.29818 0.91699,0.2864 1.29107,-0.0877 0.70559,-0.7056 0.22633,-1.72485 -1.78769,-3.80193 l -1.85393,-1.91196 0.87926,-0.67065 c 1.23297,-0.94043 2.25911,-1.29383 2.84554,-0.97998 0.63282,0.33867 1.45252,2.12611 2.27226,4.95485 0.36702,1.26652 0.84556,2.49973 1.06342,2.74046 0.66085,0.73023 4.27915,0.885 6.00506,0.25686 0.76485,-0.27836 2.75986,-0.93624 4.43335,-1.46195 1.67349,-0.52571 3.5618,-1.25935 4.19625,-1.63032 l 1.15354,-0.6745 -0.12806,4.98912 c -0.0704,2.74402 -0.26316,5.41915 -0.42828,5.94473 -0.28189,0.8973 -0.38185,0.96528 -1.63829,1.11409 -0.76357,0.0904 -1.98376,0.52011 -2.84193,1.00076 -5.48296,3.07089 -4.69862,2.89074 -10.40602,2.39019 -3.67702,-0.32248 -4.3462,-0.49731 -5.098,-1.33188 -0.66448,-0.73764 -2.92711,-1.40057 -4.05687,-1.18863 -1.39673,0.26203 -2.311,1.41086 -3.16738,3.97999 -0.89428,2.68284 -1.26875,3.02167 -2.98496,2.70083 z m -17.4572,-17.29661 c 0.42502,-0.21979 0.89536,-0.62868 1.04519,-0.90865 0.39487,-0.73781 0.33459,-2.51109 -0.15118,-4.44808 -0.33824,-1.34867 -0.3649,-1.92229 -0.13229,-2.84605 0.5457,-2.1672 0.19866,-3.83303 -0.79855,-3.83303 -0.74201,0 -2.6143,3.29402 -2.6143,4.59949 0,0.19046 -0.20586,0.75154 -0.45747,1.24684 -0.27287,0.53715 -0.49678,1.70748 -0.55487,2.90022 -0.0904,1.85504 -0.046,2.06076 0.61328,2.84427 0.80606,0.95795 1.7827,1.10043 3.05019,0.44499 z m 78.25784,11.00125 c -3.83785,-1.22711 -5.94718,-3.49073 -4.96425,-5.32737 0.15064,-0.28147 0.38246,-0.51177 0.51516,-0.51177 0.13269,0 1.0489,0.6113 2.03602,1.35845 3.12633,2.36631 5.31948,2.915 7.1441,1.78732 l 0.903496,-0.55839 -0.179876,0.75683 c -0.71459,3.00653 -2.0065,3.59744 -5.45465,2.49493 z m -44.29705,-22.78408 c -1.38476,-0.42024 -1.51969,-0.80837 -0.78952,-2.27098 0.88632,-1.77537 1.44997,-3.84778 1.68344,-6.18962 l 0.19728,-1.97883 1.32292,0.083 c 2.27884,0.14302 2.23623,0.0984 2.06323,2.16192 -0.14834,1.76944 -0.12908,1.84658 0.6572,2.63286 0.88542,0.88542 1.51583,0.8596 1.79714,-0.0736 0.2873,-0.95308 1.4821,-2.01822 2.60223,-2.31983 2.50212,-0.67376 6.60654,0.58797 8.3418,2.56431 1.00239,1.14166 1.02529,1.98032 0.0827,3.0267 l -0.7276,0.80769 -1.28759,-0.44201 c -1.97398,-0.67764 -4.85595,-0.38539 -8.96142,0.90875 -3.68169,1.16055 -5.70667,1.47658 -6.98178,1.08962 z m 34.09331,-0.26295 c -0.5788,-0.2325 -0.59749,-0.34315 -0.52917,-3.1337 0.0674,-2.75335 0.0396,-2.9261 -0.57777,-3.58628 -0.35672,-0.38148 -1.62926,-1.22817 -2.82785,-1.88152 -1.26505,-0.68958 -2.56862,-1.64279 -3.10737,-2.2722 -1.7009,-1.98712 -2.26212,-5.07514 -1.23,-6.76789 0.81905,-1.3433 3.97734,-3.07958 3.97734,-2.18655 0,0.18017 -0.25379,1.25365 -0.56398,2.3855 -0.72996,2.66358 -0.58784,3.17535 1.15778,4.16912 1.69043,0.96233 2.33735,1.64928 4.28707,4.55224 0.83076,1.23693 2.27508,2.96771 3.2096,3.84618 1.36292,1.28118 1.69912,1.75564 1.69912,2.39789 0,1.91375 -3.24999,3.37894 -5.49477,2.47721 z m -61.79759,-25.831 c -0.38221,-0.3822 -0.12092,-0.64856 1.21638,-1.23998 2.62517,-1.16097 5.15453,-4.92106 6.58532,-9.78958 l 0.61065,-2.07782 -0.78864,-0.61944 c -1.54452,-1.21316 -1.97927,-1.69496 -1.97927,-2.1935 0,-0.27786 0.65737,-1.4705 1.46083,-2.65031 0.80345,-1.1798 1.53356,-2.50876 1.62245,-2.95323 0.0889,-0.44447 0.3762,-0.92296 0.63845,-1.06331 0.547,-0.29275 1.83452,-0.34452 1.83452,-0.0738 0,0.0998 -0.49787,0.77186 -1.10639,1.49352 -2.10836,2.5004 -2.65426,4.65292 -1.53944,6.07019 0.30611,0.38916 0.52916,1.07335 0.52916,1.62318 0,1.40231 0.80771,2.10892 2.21374,1.93665 0.60146,-0.0737 1.33168,-0.22422 1.62272,-0.3345 0.36016,-0.13648 0.21229,0.13238 -0.46302,0.84182 -1.24978,1.31295 -1.31961,2.02029 -0.18773,1.90156 0.50118,-0.0526 0.89864,0.0646 1.05428,0.31079 0.39996,0.63265 0.31992,0.71406 -0.85726,0.87195 -0.61336,0.0823 -1.25141,0.33586 -1.41789,0.56353 -0.16648,0.22767 -0.36465,1.40719 -0.44039,2.62115 -0.0757,1.21395 -0.27861,2.47049 -0.45085,2.79231 -0.27557,0.51492 -0.45231,0.56425 -1.47317,0.41117 -0.92395,-0.13856 -1.31094,-0.0666 -1.90158,0.3536 -0.40785,0.29016 -1.38824,0.71946 -2.17864,0.95399 -1.44001,0.4273 -4.27312,0.58115 -4.60423,0.25004 z m -62.88264,-41.44855 c 1.09141,-1.06266 2.51944,-2.57135 3.1734,-3.35263 1.28269,-1.53243 4.4868,-3.76793 6.98236,-4.87158 2.30629,-1.01996 2.58286,-0.87998 1.14523,0.5796 -0.68575,0.69622 -1.24682,1.4858 -1.24682,1.75463 0,0.41828 0.1541,0.4681 1.06861,0.34544 0.99793,-0.13386 1.05747,-0.10554 0.90031,0.42818 -0.0926,0.31433 -0.47357,1.04445 -0.84669,1.62249 l -0.67839,1.05098 -0.24892,-0.6541 c -0.48372,-1.2711 -0.65341,-1.44868 -1.46153,-1.52951 -1.09541,-0.10956 -1.83384,0.30942 -5.37535,3.04998 -3.91577,3.03015 -4.61107,3.51451 -5.04055,3.5113 -0.19582,-0.002 0.53693,-0.87212 1.62834,-1.93478 z m 14.29516,-6.2543 c -0.21407,-0.13538 -0.33313,-0.29783 -0.26458,-0.361 0.55948,-0.51557 5.76078,-2.70034 5.95836,-2.50276 0.14642,0.14642 -2.52526,2.04946 -3.77007,2.68541 -0.96263,0.49179 -1.36857,0.52942 -1.92371,0.17835 z"
         id="path1093"
         inkscape:connector-curvature="0" />
    </g>
  </g>
</svg>
